<?xml version="1.0" standalone="no"?>
<!DOCTYPE svg PUBLIC "-//W3C//DTD SVG 20010904//EN"
 "http://www.w3.org/TR/2001/REC-SVG-20010904/DTD/svg10.dtd">
<svg version="1.0" xmlns="http://www.w3.org/2000/svg"
 width="512.000000pt" height="512.000000pt" viewBox="0 0 512.000000 512.000000"
 preserveAspectRatio="xMidYMid meet">
<metadata>
Created by potrace 1.11, written by Peter Selinger 2001-2013
</metadata>
<g transform="translate(0.000000,512.000000) scale(0.100000,-0.100000)"
fill="#000000" stroke="none">
<path d="M1350 4590 c0 -5 -16 -10 -35 -10 -24 0 -35 -5 -35 -15 0 -9 -9 -15
-25 -15 -24 0 -34 -5 -70 -38 -9 -8 -15 -9 -15 -3 0 6 -9 11 -20 11 -11 0 -20
-7 -20 -15 0 -21 -13 -19 -41 6 -20 18 -32 20 -74 15 -27 -3 -51 -10 -53 -16
-2 -5 -19 -10 -39 -10 -31 0 -33 -2 -19 -15 18 -18 43 -19 61 -2 44 38 45 39
60 23 17 -17 20 -36 5 -36 -5 0 -10 -4 -10 -10 0 -17 25 -11 40 10 18 26 30
25 30 0 0 -15 9 -22 30 -26 23 -5 30 -12 30 -29 0 -13 6 -26 13 -28 9 -4 8 -8
-3 -16 -12 -8 -7 -11 23 -11 36 0 50 -13 25 -23 -19 -8 11 -27 40 -27 23 0 52
-21 52 -37 0 -5 -9 -15 -19 -22 -16 -12 -17 -16 -6 -28 17 -17 23 -16 41 2 21
21 34 19 34 -6 0 -15 5 -19 19 -14 11 3 25 -1 34 -10 19 -18 34 -19 40 -2 2 6
8 8 13 4 5 -4 3 -11 -3 -15 -6 -4 -15 -20 -18 -35 l-7 -27 56 0 c49 0 56 -3
56 -19 0 -11 -9 -23 -20 -26 -21 -7 -28 -25 -10 -25 6 0 10 5 10 10 0 6 9 10
20 10 11 0 20 7 20 15 0 8 5 15 11 15 6 0 17 6 24 13 37 32 47 39 53 32 3 -3
0 -10 -8 -15 -54 -33 -67 -60 -30 -60 11 0 20 -4 20 -10 0 -5 13 -10 29 -10
22 0 30 6 35 25 4 14 11 25 16 25 6 0 10 6 10 13 0 7 9 19 20 27 11 8 20 19
20 25 0 6 10 17 21 25 12 8 39 32 60 53 36 35 89 51 89 27 0 -5 -4 -10 -10
-10 -5 0 -10 -6 -10 -13 0 -7 -10 -19 -21 -27 -12 -8 -41 -33 -64 -55 -51 -47
-94 -83 -114 -95 -8 -4 -15 -27 -16 -54 -1 -30 2 -42 7 -34 8 10 11 10 15 1 2
-7 11 -13 20 -13 8 0 20 -6 28 -13 11 -12 10 -16 -6 -28 -25 -18 -24 -39 1
-39 11 0 20 6 20 13 0 7 11 21 25 31 14 10 25 27 25 37 0 11 4 19 8 19 9 0 40
23 84 63 35 31 38 32 38 13 0 -16 -14 -32 -49 -56 -11 -8 -21 -19 -21 -25 0
-6 -9 -17 -20 -25 -18 -13 -28 -40 -14 -40 8 0 34 27 34 36 0 8 40 44 50 44 5
0 11 11 14 25 8 30 26 33 26 5 0 -12 -11 -31 -25 -44 -14 -13 -25 -28 -25 -35
0 -6 -4 -11 -10 -11 -5 0 -10 -7 -10 -16 0 -13 7 -15 31 -10 16 3 36 11 43 18
8 7 23 20 35 28 11 8 21 18 21 23 0 13 62 69 69 61 3 -4 0 -9 -6 -11 -7 -3
-13 -18 -13 -34 0 -22 5 -29 20 -29 11 0 20 -4 20 -10 0 -5 14 -10 30 -10 17
0 30 5 30 10 0 6 7 10 15 10 8 0 15 -4 15 -10 0 -5 5 -10 10 -10 16 0 11 37
-6 44 -25 10 -34 7 -34 -9 0 -8 -7 -15 -16 -15 -26 0 -44 26 -44 64 0 32 -3
36 -25 36 -14 0 -25 -4 -25 -10 0 -15 -49 -12 -66 4 -17 18 -18 32 -1 40 10 5
10 7 0 12 -15 7 -17 44 -3 44 16 0 11 37 -6 44 -22 9 -24 8 -24 -9 0 -8 -4
-15 -10 -15 -5 0 -12 -11 -16 -25 -3 -14 -10 -25 -14 -25 -4 0 -22 -13 -40
-30 -18 -16 -36 -30 -41 -30 -5 0 -9 -9 -9 -20 0 -11 -6 -20 -13 -20 -8 0 -24
-9 -37 -20 -13 -11 -32 -20 -43 -20 -20 0 -20 0 1 18 11 9 30 24 41 32 12 8
21 19 21 26 0 17 36 54 52 54 13 0 27 9 76 50 17 15 15 40 -3 40 -8 0 -15 7
-15 15 0 8 5 15 10 15 6 0 10 9 10 20 0 11 -4 20 -10 20 -5 0 -10 6 -10 14 0
18 -20 25 -53 19 -24 -5 -27 -2 -27 21 0 21 -5 26 -25 26 -20 0 -25 5 -25 25
0 14 -4 25 -10 25 -5 0 -10 7 -10 15 0 18 -7 19 -25 3 -48 -43 -55 -46 -55
-23 0 8 5 15 10 15 6 0 10 11 10 24 0 13 6 27 13 29 9 4 8 8 -3 16 -26 18 -37
12 -32 -17 2 -18 -2 -35 -12 -45 -9 -8 -16 -19 -16 -24 0 -5 -10 -15 -21 -23
-12 -8 -42 -34 -67 -57 -24 -24 -54 -43 -65 -43 -20 0 -20 0 1 19 12 10 22 23
22 30 0 6 4 11 9 11 5 0 13 10 17 23 4 12 15 29 25 38 11 9 19 21 19 28 0 6 4
11 8 11 18 0 52 38 52 59 0 11 5 21 10 21 6 0 10 7 10 15 0 23 -7 20 -55 -23
-13 -11 -18 -11 -31 2 -8 9 -26 16 -40 16 -17 0 -24 6 -24 19 0 11 6 22 13 24
6 3 2 6 -10 6 -18 1 -23 -5 -23 -23 0 -13 6 -27 13 -30 6 -3 -1 -3 -18 1 -38
7 -43 12 -25 24 13 8 13 10 0 19 -8 5 -21 10 -29 10 -16 0 -71 -54 -71 -70 0
-5 -4 -10 -8 -10 -11 0 -52 -35 -52 -44 0 -4 -18 -25 -40 -47 -38 -38 -41 -39
-58 -23 -11 11 -13 19 -5 21 6 2 21 13 34 24 12 10 26 19 31 19 4 0 8 8 8 19
0 10 12 27 26 37 52 38 64 52 64 73 0 14 -6 21 -20 21 -11 0 -20 -4 -20 -10z
m220 -94 c0 -25 -11 -40 -50 -66 -13 -8 -33 -25 -45 -36 -12 -12 -32 -25 -45
-29 -23 -7 -23 -7 -7 9 9 10 17 23 17 30 0 6 9 18 21 26 38 26 79 68 79 79 0
6 7 11 15 11 9 0 15 -9 15 -24z m-110 -16 c0 -5 -4 -10 -9 -10 -5 0 -12 -11
-15 -25 -4 -14 -10 -25 -15 -25 -5 0 -23 -12 -40 -27 -49 -44 -60 -53 -66 -53
-14 0 -1 28 23 48 15 12 38 31 51 42 13 11 28 20 32 20 4 0 11 9 14 20 7 21
25 28 25 10z m320 -101 c0 -16 -26 -39 -44 -39 -9 0 -16 5 -16 10 0 6 5 10 10
10 6 0 10 7 10 15 0 8 9 15 20 15 11 0 20 -5 20 -11z m48 -51 c-6 -18 -28 -21
-28 -4 0 9 7 16 16 16 9 0 14 -5 12 -12z m-48 -23 c0 -8 -4 -15 -9 -15 -11 0
-71 -55 -71 -66 0 -10 -70 -74 -81 -74 -19 0 -9 49 11 55 11 3 20 10 20 15 0
5 9 11 19 15 11 3 23 16 27 28 11 34 31 49 77 56 4 0 7 -6 7 -14z m-150 -4 c0
-5 -9 -13 -20 -16 -11 -3 -20 -13 -20 -21 0 -16 -47 -64 -61 -64 -5 0 -9 -9
-9 -19 0 -11 -9 -23 -20 -26 -11 -3 -20 -11 -20 -16 0 -5 -4 -9 -10 -9 -5 0
-10 7 -10 15 0 8 5 15 10 15 6 0 10 9 10 20 0 11 4 20 8 20 21 0 102 79 102
100 0 5 9 10 20 10 11 0 20 -4 20 -9z m300 -102 c0 -14 -39 -49 -54 -48 -6 0
-6 3 2 6 6 2 12 13 12 23 0 17 12 27 33 29 4 1 7 -4 7 -10z"/>
<path d="M3397 3615 c-9 -8 -17 -20 -19 -26 -2 -6 -34 -13 -72 -15 -42 -3 -73
-10 -83 -19 -8 -8 -20 -15 -26 -14 -9 0 -8 2 1 6 6 2 12 11 12 19 0 8 9 14 19
14 10 0 22 7 25 16 9 23 8 24 -19 24 -14 0 -25 -4 -25 -10 0 -5 -18 -10 -41
-10 -22 0 -46 -6 -53 -12 -8 -7 -24 -20 -36 -28 -13 -8 -34 -26 -48 -40 -14
-13 -27 -20 -29 -15 -8 24 -23 39 -30 31 -4 -5 -2 -11 5 -13 29 -11 -6 -83
-40 -83 -4 0 -8 -5 -8 -11 0 -10 -63 -72 -121 -119 -17 -14 -48 -42 -70 -63
-29 -28 -51 -39 -84 -44 -32 -4 -45 -10 -45 -22 0 -8 -12 -26 -27 -38 -16 -13
-40 -33 -56 -45 -15 -13 -47 -41 -71 -63 -24 -22 -54 -47 -66 -55 -12 -8 -28
-21 -36 -27 -7 -7 -17 -13 -23 -13 -16 0 -13 17 4 24 8 3 15 10 15 17 0 11 41
52 79 79 12 8 21 20 21 27 0 7 5 13 11 13 14 0 39 25 39 39 0 6 4 11 9 11 5 0
23 12 40 28 17 15 37 33 46 40 8 7 15 18 15 25 0 8 -4 7 -10 -3 -5 -8 -12 -11
-17 -7 -10 11 17 27 34 20 18 -7 17 24 -1 43 -29 29 -116 11 -116 -24 0 -6 -7
-12 -15 -16 -8 -3 -15 -15 -15 -26 0 -11 -4 -20 -9 -20 -5 0 -23 -13 -41 -30
-18 -16 -36 -30 -41 -30 -5 0 -9 -4 -9 -10 0 -5 9 -10 20 -10 11 0 20 7 20 15
0 8 9 15 20 15 11 0 20 7 20 15 0 9 11 26 25 39 14 13 25 28 25 35 0 6 7 11
16 11 8 0 22 7 30 15 9 8 20 15 25 15 5 0 9 -7 9 -15 0 -8 -4 -15 -9 -15 -11
0 -71 -55 -71 -65 0 -4 -16 -22 -35 -41 -19 -18 -35 -36 -35 -41 0 -5 -10 -15
-21 -23 -12 -8 -41 -33 -64 -55 -24 -22 -52 -46 -63 -54 -20 -14 -20 -14 2
-36 17 -17 39 -23 101 -28 44 -4 82 -12 83 -17 2 -6 10 -10 18 -10 8 0 14 -4
14 -10 0 -5 14 -10 30 -10 17 0 30 5 30 10 0 22 38 9 44 -15 10 -39 30 -34 91
23 13 12 28 22 34 22 5 0 17 7 26 16 9 9 19 13 23 9 4 -4 1 -10 -5 -12 -8 -3
-13 -23 -13 -49 0 -24 -4 -44 -10 -44 -5 0 -10 -11 -10 -25 0 -21 5 -25 29
-25 16 0 37 7 45 16 14 13 18 14 31 1 7 -8 17 -26 21 -41 7 -28 27 -34 48 -13
8 6 24 19 36 27 42 28 52 42 45 67 -4 16 -1 25 10 29 8 4 15 15 15 25 0 10 4
19 9 19 5 0 17 7 26 16 9 9 19 13 23 9 4 -4 1 -10 -5 -12 -7 -3 -13 -9 -13
-15 0 -12 -39 -48 -52 -48 -4 0 -8 -4 -8 -10 0 -5 7 -10 16 -10 18 0 44 23 44
39 0 6 5 11 10 11 6 0 10 5 10 11 0 6 16 26 35 45 19 18 35 38 35 44 0 5 7 10
15 10 9 0 28 11 43 25 15 14 34 32 43 40 9 8 21 15 28 15 6 0 23 11 37 25 14
14 29 25 34 25 18 0 10 -25 -11 -40 -11 -8 -30 -23 -41 -32 -12 -10 -25 -18
-29 -18 -4 0 -9 -10 -11 -22 -2 -13 -11 -24 -22 -26 -21 -4 -46 -25 -46 -39 0
-5 -10 -15 -21 -23 -12 -8 -27 -21 -33 -28 -25 -29 -35 -38 -56 -52 -12 -8
-42 -33 -66 -55 -80 -73 -106 -95 -115 -95 -5 0 -9 -4 -9 -10 0 -5 9 -10 20
-10 11 0 20 5 20 10 0 6 5 10 10 10 6 0 10 -7 10 -15 0 -8 5 -15 10 -15 19 0
10 -39 -10 -45 -20 -6 -28 -35 -10 -35 6 0 10 -11 10 -25 0 -28 13 -32 32 -10
28 34 77 75 90 75 4 0 8 9 8 20 0 14 7 20 23 20 17 0 19 2 8 9 -11 7 -9 14 12
34 15 13 27 28 27 33 0 5 9 16 20 24 11 8 20 19 20 24 0 10 39 46 52 46 4 0 8
7 8 15 0 15 32 49 69 75 11 8 21 18 21 22 0 16 78 85 104 92 14 3 26 11 26 16
0 6 9 10 20 10 16 0 20 -7 20 -34 0 -26 -5 -36 -20 -41 -11 -3 -20 -10 -20
-15 0 -5 -9 -12 -20 -15 -11 -3 -20 -15 -20 -25 0 -10 -9 -21 -19 -25 -11 -3
-23 -15 -26 -26 -4 -10 -10 -19 -14 -19 -8 0 -40 -24 -83 -62 -16 -16 -34 -28
-39 -28 -11 0 -17 -5 -66 -49 -18 -16 -33 -34 -33 -40 0 -11 -13 -30 -35 -52
-25 -24 -59 -49 -67 -49 -4 0 -8 -11 -8 -25 0 -14 -4 -25 -10 -25 -5 0 -10 -9
-10 -19 0 -10 -7 -21 -15 -25 -8 -3 -15 -10 -15 -16 0 -6 7 -4 16 4 8 9 25 16
36 16 l21 0 -21 -19 c-30 -25 -31 -87 -2 -96 21 -7 28 -25 10 -25 -5 0 -10
-11 -10 -25 0 -18 5 -25 18 -25 11 0 29 -8 40 -19 23 -19 29 -41 12 -41 -5 0
-10 -10 -10 -23 0 -12 -9 -29 -20 -37 -11 -8 -20 -19 -20 -25 0 -6 -9 -17 -20
-25 -11 -8 -20 -20 -20 -27 0 -7 -4 -13 -10 -13 -16 0 -11 -47 6 -54 28 -11
42 -7 67 18 13 13 33 27 45 30 12 4 22 14 22 22 0 8 5 14 10 14 6 0 10 9 10
20 0 11 5 20 10 20 6 0 10 6 10 14 0 8 6 17 13 19 7 3 7 6 1 6 -10 1 -22 -8
-70 -48 -7 -6 -14 -16 -17 -23 -2 -7 -8 -9 -13 -5 -5 4 -4 11 2 15 6 4 14 17
18 30 4 12 12 22 17 22 5 0 9 6 9 13 0 7 10 19 21 27 12 8 41 33 65 55 24 22
58 51 75 65 17 14 48 42 70 63 45 43 49 44 49 17 0 -11 -4 -20 -9 -20 -14 0
-61 -48 -61 -64 0 -8 -6 -17 -12 -20 -7 -3 -1 -3 15 1 22 4 26 2 21 -11 -3 -9
-18 -19 -32 -23 -14 -3 -37 -17 -50 -30 -12 -12 -29 -23 -37 -23 -9 0 -15 -10
-15 -26 0 -27 7 -26 45 8 83 74 116 108 106 108 -6 0 -11 9 -11 20 0 22 35 29
42 8 3 -9 9 -8 22 5 10 9 26 17 37 17 10 0 19 7 19 15 0 20 -13 19 -40 -5 -27
-24 -40 -25 -40 -5 0 8 8 15 18 15 22 0 62 32 62 49 0 6 5 11 11 11 14 0 39
25 39 39 0 20 -29 11 -60 -19 -34 -33 -50 -38 -50 -15 0 8 4 15 9 15 5 0 34
24 64 53 30 28 64 59 77 67 35 23 70 63 70 80 0 12 -24 40 -35 40 -4 0 -13 7
-21 15 -21 20 -29 19 -58 -10 -14 -14 -30 -25 -36 -25 -5 0 -10 -6 -10 -14 0
-7 -13 -16 -30 -19 -21 -5 -30 -12 -30 -27 0 -13 -7 -20 -20 -20 -11 0 -20 -7
-20 -15 0 -8 -4 -15 -10 -15 -17 0 -11 25 10 40 11 8 20 19 20 25 0 6 10 17
22 25 11 8 33 27 48 43 15 15 35 27 44 27 9 0 16 7 16 15 0 19 14 19 34 -1 13
-12 18 -13 29 -2 12 11 10 17 -14 39 -28 27 -39 59 -19 59 6 0 10 9 10 20 0
25 -5 25 -33 0 -92 -85 -117 -107 -137 -120 -12 -8 -28 -20 -34 -27 -30 -33
-36 -39 -48 -49 -8 -6 -27 -14 -43 -18 l-30 -7 23 18 c13 10 43 36 68 58 24
22 57 51 74 65 17 14 52 45 78 68 38 36 50 43 74 38 21 -4 28 -2 28 9 0 8 5
15 10 15 6 0 10 18 10 40 0 33 -3 40 -20 40 -17 0 -20 7 -20 40 0 22 -4 40
-10 40 -5 0 -10 -11 -10 -25 0 -15 -6 -25 -14 -25 -8 0 -21 -3 -30 -6 -13 -5
-16 2 -16 39 0 27 5 47 13 50 9 4 8 8 -3 16 -12 8 -8 11 18 11 25 0 32 4 32
19 0 13 -10 21 -33 25 l-34 6 0 60 c0 49 -4 63 -21 79 -23 19 -29 41 -12 41
15 0 12 49 -4 66 -16 15 -66 19 -66 5 0 -5 14 -11 30 -14 38 -8 39 -24 3 -33
-16 -4 -35 -15 -44 -26 -9 -10 -21 -18 -26 -18 -6 0 -20 -9 -33 -20 -13 -11
-32 -20 -44 -20 -19 0 -19 1 3 18 69 54 93 81 87 100 -4 13 -1 25 9 34 8 7 30
26 47 41 l31 28 -28 -7 c-15 -4 -49 -28 -76 -53 -68 -65 -79 -74 -87 -66 -4 4
-1 10 6 12 6 3 12 10 12 17 0 6 10 18 21 26 12 8 39 32 60 53 20 20 46 37 56
38 10 0 13 3 6 6 -7 2 -13 16 -13 29 0 27 -12 31 -33 9z m-247 -116 c0 -12
-16 -36 -35 -53 -67 -60 -66 -60 -75 -46 -10 16 -34 -4 -44 -37 -4 -12 -16
-25 -27 -28 -10 -4 -19 -15 -19 -25 0 -10 -9 -22 -20 -25 -11 -3 -20 -11 -20
-16 0 -13 -46 -59 -59 -59 -6 0 -22 -12 -36 -26 -14 -14 -29 -23 -33 -19 -4 4
-1 10 6 12 6 3 12 10 12 16 0 7 16 25 35 42 19 16 35 33 35 38 0 8 -8 2 -61
-45 -17 -16 -35 -28 -40 -28 -5 0 -9 -9 -9 -20 0 -11 -5 -20 -10 -20 -6 0 -14
-8 -17 -17 -9 -25 -62 -73 -80 -73 -8 0 -32 -18 -54 -40 -22 -22 -49 -40 -59
-40 -11 0 -20 -4 -20 -10 0 -5 -4 -10 -10 -10 -19 0 -10 22 21 51 17 16 35 29
40 29 5 0 9 5 9 10 0 17 36 57 70 80 13 8 33 25 46 38 13 12 27 22 32 22 6 0
24 12 40 28 53 47 75 62 94 62 20 0 68 42 68 60 0 5 4 10 10 10 5 0 23 14 40
31 23 25 35 30 55 25 18 -5 25 -2 25 8 0 8 9 18 20 21 11 3 20 13 20 21 0 15
29 52 43 53 4 1 7 -9 7 -20z m60 -97 c0 -4 -9 -14 -21 -22 -41 -29 -56 -45
-63 -67 -4 -13 -11 -23 -15 -23 -17 0 -141 -111 -141 -127 0 -5 -10 -15 -21
-23 -12 -8 -42 -34 -67 -57 -24 -24 -51 -43 -59 -43 -8 0 -25 -10 -38 -22 -54
-51 -58 -53 -50 -27 8 24 24 41 65 69 32 22 110 98 110 107 0 5 10 15 21 23
37 25 69 60 69 75 0 7 9 17 20 20 11 3 20 11 20 16 0 5 7 9 15 9 18 0 29 9 83
62 34 33 72 50 72 30z m180 -57 c0 -15 -40 -59 -62 -68 -10 -4 -10 -8 2 -16
10 -7 11 -11 3 -11 -7 0 -13 -9 -13 -20 0 -11 -4 -20 -10 -20 -14 0 -12 37 3
43 7 3 7 6 1 6 -15 1 -54 -33 -54 -47 0 -12 -36 -49 -70 -72 -40 -27 -57 -45
-64 -67 -4 -12 -16 -25 -27 -28 -10 -4 -19 -11 -19 -16 0 -5 -7 -9 -15 -9 -16
0 -34 -12 -63 -42 -9 -10 -24 -18 -33 -18 -10 0 -19 -6 -22 -12 -2 -7 -8 -9
-13 -5 -5 4 -2 13 6 18 12 9 12 10 -3 5 -10 -3 -21 -6 -23 -6 -2 0 -4 -9 -4
-19 0 -11 -9 -22 -19 -26 -11 -3 -23 -15 -26 -26 -4 -10 -10 -19 -14 -19 -4 0
-18 -9 -31 -20 -13 -11 -27 -20 -32 -20 -19 0 -6 34 25 61 17 16 37 34 42 39
38 40 76 70 87 70 4 0 8 -7 8 -15 0 -19 5 -19 30 2 11 10 20 25 20 35 0 9 9
20 20 23 11 3 20 10 20 15 0 5 9 12 20 15 11 3 20 15 20 26 0 10 4 19 9 19 5
0 30 20 55 45 26 25 52 45 57 45 5 0 9 9 9 19 0 11 9 22 19 26 11 3 22 12 25
20 3 8 12 15 21 15 9 0 27 11 41 25 14 14 34 25 44 25 11 0 20 5 20 10 0 6 2
10 5 10 3 0 5 -7 5 -15z m100 -35 c0 -11 -4 -20 -10 -20 -5 0 -10 9 -10 20 0
11 5 20 10 20 6 0 10 -9 10 -20z m-53 -81 c-16 -15 -36 -32 -44 -39 -8 -7 -12
-18 -9 -26 3 -7 0 -11 -8 -8 -11 4 -23 -4 -73 -46 -7 -5 -19 -10 -27 -10 -7 0
-16 -7 -20 -15 -3 -8 -15 -15 -27 -15 -18 0 -14 7 25 45 26 25 53 45 61 45 21
0 78 57 70 69 -11 19 2 26 43 26 l39 0 -30 -26z m-377 -115 c0 -9 -41 -44 -51
-44 -4 0 -11 -16 -15 -35 -4 -25 -11 -35 -25 -35 -12 0 -19 7 -19 20 0 11 4
20 9 20 5 0 27 18 48 39 36 38 53 49 53 35z m-350 -54 c0 -5 -4 -10 -9 -10 -9
0 -40 -26 -117 -97 -46 -44 -64 -52 -64 -32 0 15 39 49 57 49 17 0 53 36 53
54 0 8 9 18 20 21 11 3 20 11 20 16 0 5 9 9 20 9 11 0 20 -4 20 -10z m603 -67
c-7 -2 -13 -11 -13 -19 0 -8 -9 -14 -20 -14 -11 0 -20 -5 -20 -12 0 -6 -3 -8
-7 -4 -8 8 45 56 61 55 6 0 6 -3 -1 -6z m307 -9 c0 -20 -24 -44 -43 -44 -9 0
-17 -4 -19 -10 -1 -5 -19 -11 -39 -13 -36 -4 -89 -44 -89 -67 0 -5 -8 -10 -18
-10 -16 0 -52 -32 -52 -46 0 -3 -6 -12 -14 -20 -17 -16 -46 -19 -46 -4 0 6 4
10 9 10 13 0 66 52 74 73 3 9 14 17 22 17 16 0 45 23 45 35 0 15 63 65 82 65
11 0 26 7 34 15 20 20 54 19 54 -1z m-1140 -7 c0 -20 -35 -57 -54 -57 -22 0
-20 13 5 30 12 8 27 20 33 27 14 16 16 16 16 0z m260 -27 c0 -5 -7 -15 -15
-22 -9 -7 -27 -23 -40 -35 -32 -31 -55 -30 -55 2 0 18 5 25 20 25 11 0 20 5
20 10 0 6 9 10 20 10 11 0 20 5 20 10 0 6 7 10 15 10 8 0 15 -4 15 -10z m230
-103 c0 -7 -9 -19 -20 -27 -11 -8 -20 -20 -20 -27 0 -7 -9 -13 -20 -13 -26 0
-26 22 1 40 12 8 27 20 33 27 15 16 26 16 26 0z m110 -77 c0 -5 -4 -10 -10
-10 -5 0 -20 -11 -34 -25 -30 -30 -36 -31 -36 -6 0 11 9 23 20 26 11 3 20 11
20 16 0 5 9 9 20 9 11 0 20 -4 20 -10z m323 -67 c-7 -2 -13 -11 -13 -18 0 -15
-33 -51 -70 -75 -12 -8 -46 -37 -75 -65 -29 -27 -62 -57 -75 -65 -12 -8 -28
-21 -34 -28 -22 -26 -63 -62 -70 -62 -3 0 -6 11 -6 25 0 18 5 25 20 25 11 0
20 5 20 11 0 11 39 50 135 134 25 22 52 46 60 53 7 6 19 12 25 12 12 0 31 14
58 43 9 9 21 17 27 16 5 0 4 -3 -2 -6z m237 -8 c0 -8 -4 -15 -10 -15 -5 0 -10
7 -10 15 0 8 5 15 10 15 6 0 10 -7 10 -15z m-40 -10 c0 -8 -7 -15 -16 -15 -20
0 -44 -24 -44 -44 0 -9 -16 -32 -35 -50 -19 -19 -35 -37 -35 -41 0 -12 -29
-35 -44 -35 -22 0 -20 13 5 30 60 42 89 77 89 108 0 22 6 32 20 37 11 3 20 11
20 16 0 5 9 9 20 9 11 0 20 -7 20 -15z m-410 -25 c0 -5 -4 -10 -10 -10 -5 0
-10 5 -10 10 0 6 5 10 10 10 6 0 10 -4 10 -10z m320 0 c0 -5 -4 -10 -10 -10
-5 0 -10 -6 -10 -13 0 -7 -9 -19 -21 -27 -12 -8 -35 -27 -51 -42 -17 -16 -34
-28 -40 -28 -13 0 -38 -26 -38 -39 0 -6 5 -11 10 -11 18 0 11 -18 -10 -25 -11
-3 -20 -15 -20 -25 0 -10 -9 -22 -20 -25 -11 -3 -20 -11 -20 -16 0 -10 -13
-28 -37 -52 -26 -25 -40 -34 -66 -41 -15 -3 -27 -11 -27 -16 0 -6 -7 -10 -15
-10 -32 0 -15 36 34 70 11 8 21 19 21 24 0 11 40 46 52 46 5 0 20 11 34 25 14
14 29 25 34 25 6 0 10 10 10 23 0 12 10 29 21 37 12 8 27 21 33 28 27 32 76
72 88 72 4 0 8 9 8 20 0 13 7 20 20 20 11 0 20 -4 20 -10z m-217 -117 c-7 -2
-13 -13 -13 -24 0 -10 -5 -19 -10 -19 -6 0 -14 -8 -17 -17 -7 -19 -47 -59 -83
-83 -13 -8 -28 -21 -34 -28 -32 -37 -39 -42 -57 -42 -10 0 -19 7 -19 15 0 8 9
15 20 15 11 0 20 5 20 11 0 12 73 84 110 109 22 15 33 25 58 55 7 8 18 15 25
14 9 0 9 -2 0 -6z"/>
<path d="M3390 3240 c0 -5 5 -10 10 -10 6 0 10 5 10 10 0 6 -4 10 -10 10 -5 0
-10 -4 -10 -10z"/>
<path d="M3512 2940 c0 -14 2 -19 5 -12 2 6 2 18 0 25 -3 6 -5 1 -5 -13z"/>
<path d="M2763 3531 c-13 -12 -16 -12 -24 0 -6 10 -9 3 -9 -23 0 -20 7 -43 15
-52 17 -17 20 -36 5 -36 -5 0 -10 -7 -10 -15 0 -8 3 -15 6 -15 9 0 34 28 34
39 0 5 9 13 20 16 11 3 20 15 20 26 0 10 5 19 10 19 6 0 10 7 10 15 0 8 5 15
10 15 6 0 10 7 10 14 0 20 -77 17 -97 -3z"/>
<path d="M2890 3520 c0 -11 -4 -20 -9 -20 -5 0 -12 -11 -15 -24 -3 -14 -15
-28 -26 -31 -11 -3 -20 -11 -20 -16 0 -16 11 -10 51 31 36 36 52 80 29 80 -5
0 -10 -9 -10 -20z"/>
<path d="M1880 3470 c-8 -11 -31 -22 -57 -26 -24 -3 -43 -10 -43 -15 0 -5 -4
-9 -10 -9 -5 0 -10 7 -10 15 0 8 -9 15 -20 15 -11 0 -20 5 -20 10 0 6 -7 10
-15 10 -8 0 -15 -4 -15 -9 0 -5 -27 -12 -60 -16 -33 -4 -60 -11 -60 -15 0 -4
-11 -11 -25 -14 -14 -4 -25 -11 -25 -16 0 -6 -7 -10 -15 -10 -16 0 -34 -12
-63 -42 -9 -10 -29 -18 -44 -18 -16 0 -28 -4 -28 -10 0 -5 -9 -10 -20 -10 -11
0 -20 -4 -20 -10 0 -5 -11 -12 -25 -16 -14 -3 -25 -10 -25 -15 0 -5 -9 -9 -20
-9 -11 0 -20 -7 -20 -15 0 -8 -7 -15 -16 -15 -9 0 -27 -11 -40 -25 -13 -14
-33 -25 -44 -25 -22 0 -50 -21 -50 -39 0 -5 -9 -12 -19 -16 -11 -3 -23 -16
-27 -28 -7 -23 -41 -57 -56 -57 -4 0 -8 -11 -8 -25 0 -14 -4 -25 -10 -25 -5 0
-10 -11 -10 -25 0 -14 5 -25 10 -25 18 0 11 -18 -10 -25 -11 -3 -20 -13 -20
-21 0 -16 -47 -64 -61 -64 -5 0 -9 -9 -9 -19 0 -11 -9 -23 -20 -26 -11 -3 -20
-13 -20 -21 0 -8 -4 -14 -10 -14 -5 0 -10 -9 -10 -20 0 -11 5 -20 10 -20 6 0
10 9 10 20 0 11 5 20 10 20 6 0 10 7 10 15 0 9 12 18 30 21 18 4 32 15 36 28
4 11 15 28 25 37 11 9 19 20 19 24 0 14 42 45 61 45 11 0 19 9 21 23 2 17 10
22 33 23 50 2 55 4 55 15 0 7 8 19 19 28 10 9 21 26 25 39 4 12 11 22 16 22 5
0 21 12 36 26 20 21 28 24 34 14 6 -10 16 -6 40 18 17 18 36 32 41 32 5 0 9 9
9 19 0 11 9 23 20 26 11 3 20 11 20 16 0 5 9 9 19 9 10 0 21 7 25 15 3 8 15
15 26 15 20 0 20 -1 -5 -25 -14 -14 -25 -31 -25 -37 0 -11 -22 -32 -60 -58
-12 -8 -28 -21 -36 -27 -7 -7 -15 -13 -19 -13 -4 0 -13 -7 -21 -15 -9 -8 -20
-15 -25 -15 -5 0 -9 7 -9 15 0 8 -4 15 -10 15 -5 0 -10 -7 -10 -15 0 -8 -4
-15 -10 -15 -5 0 -10 -5 -10 -10 0 -6 -11 -22 -25 -36 -14 -14 -25 -31 -25
-39 0 -8 -4 -15 -10 -15 -5 0 -21 -12 -36 -27 -18 -18 -29 -23 -32 -15 -5 17
-42 15 -42 -3 0 -8 -11 -25 -25 -39 -14 -14 -25 -30 -25 -36 0 -5 -4 -10 -9
-10 -5 0 -31 -20 -57 -45 -25 -25 -50 -45 -55 -45 -5 0 -9 -9 -9 -20 0 -11 -4
-20 -10 -20 -5 0 -10 -7 -10 -15 0 -8 -9 -15 -20 -15 -11 0 -20 5 -20 10 0 6
-4 10 -10 10 -5 0 -10 -7 -10 -15 0 -8 5 -15 10 -15 6 0 10 -9 10 -20 0 -11
-4 -20 -10 -20 -5 0 -12 -17 -16 -37 -4 -21 -12 -41 -18 -45 -8 -6 -8 -8 0 -8
7 0 15 -17 19 -37 4 -21 12 -42 18 -46 9 -6 9 -10 0 -14 -15 -6 -17 -33 -3
-33 6 0 10 -7 10 -15 0 -8 4 -15 9 -15 5 0 16 7 25 15 22 22 26 19 26 -20 0
-19 -4 -35 -10 -35 -5 0 -10 -7 -10 -15 0 -8 5 -15 10 -15 6 0 10 4 10 9 0 5
9 13 20 16 11 3 20 14 20 24 0 10 12 27 26 37 14 10 40 31 57 47 18 15 51 44
75 65 23 20 49 43 56 50 17 14 46 16 46 2 0 -5 -4 -10 -9 -10 -5 0 -24 -13
-42 -30 -19 -16 -52 -45 -74 -65 -64 -56 -87 -75 -97 -75 -4 0 -8 -7 -8 -15 0
-16 -28 -46 -69 -75 -12 -8 -21 -25 -21 -37 0 -13 -4 -23 -10 -23 -5 0 -10 -7
-10 -15 0 -8 -4 -15 -10 -15 -5 0 -10 -11 -10 -25 0 -14 -4 -25 -10 -25 -5 0
-10 -13 -10 -30 0 -16 5 -30 10 -30 6 0 10 -9 10 -20 0 -11 5 -20 10 -20 6 0
10 5 10 10 0 6 9 10 20 10 11 0 20 -7 20 -15 0 -8 -4 -15 -10 -15 -5 0 -10 -7
-10 -16 0 -11 6 -14 20 -9 14 5 20 2 20 -9 0 -9 -4 -16 -10 -16 -5 0 -10 -11
-10 -25 0 -14 5 -25 10 -25 6 0 10 -7 10 -16 0 -10 6 -14 15 -10 9 3 15 0 15
-9 0 -8 -7 -15 -15 -15 -8 0 -15 4 -15 9 0 5 -9 13 -20 16 -15 5 -20 15 -20
41 0 19 -4 34 -10 34 -5 0 -10 -22 -10 -50 0 -27 5 -50 10 -50 6 0 10 -18 10
-39 0 -31 4 -41 20 -46 22 -7 57 2 77 19 46 41 53 44 53 21 0 -8 -9 -15 -20
-15 -15 0 -20 -7 -20 -25 0 -14 5 -25 10 -25 18 0 11 -18 -10 -25 -11 -3 -20
-13 -20 -21 0 -8 -4 -14 -10 -14 -18 0 -10 -45 10 -60 11 -8 20 -24 20 -36 0
-25 17 -34 62 -34 29 0 30 -1 25 -35 -4 -26 -2 -35 9 -35 8 0 14 5 14 11 0 13
58 69 71 69 5 0 9 7 9 15 0 8 5 15 11 15 12 0 39 25 39 37 0 4 14 19 31 33 60
49 119 108 119 119 0 6 4 11 9 11 5 0 30 19 55 43 70 65 73 67 101 67 22 0 25
4 25 35 0 42 -3 43 -36 10 -14 -14 -30 -25 -37 -24 -9 0 -9 2 1 6 6 2 12 13
12 24 0 10 5 19 10 19 6 0 10 7 10 15 0 8 4 15 8 15 14 0 52 36 52 49 0 6 -9
11 -20 11 -11 0 -20 7 -20 15 0 8 5 15 10 15 6 0 10 9 10 20 0 11 -4 20 -10
20 -18 0 -10 31 15 56 14 14 25 31 25 39 0 8 9 15 20 15 11 0 20 4 20 9 0 5 9
13 20 16 11 3 20 11 20 16 0 6 11 21 25 35 14 14 25 31 25 39 0 8 9 15 20 15
11 0 20 6 20 13 0 7 9 19 21 27 41 29 56 45 63 68 4 12 11 22 16 22 12 0 70
56 70 68 0 6 9 14 20 17 11 3 23 16 26 29 3 12 15 29 26 37 35 24 78 67 78 77
0 5 7 12 15 16 8 3 15 14 15 25 0 11 9 22 20 26 11 3 20 11 20 16 0 5 -9 9
-20 9 -11 0 -20 -7 -20 -15 0 -8 -11 -25 -25 -39 -14 -14 -25 -30 -25 -36 0
-5 -4 -10 -8 -10 -12 0 -52 -35 -52 -45 0 -4 -16 -22 -35 -41 -19 -18 -35 -36
-35 -41 0 -5 -9 -15 -21 -23 -39 -28 -59 -47 -59 -58 0 -14 -47 -62 -60 -62
-6 0 -10 -5 -10 -11 0 -6 -20 -30 -45 -53 -25 -24 -45 -48 -45 -53 0 -5 -9
-15 -21 -23 -11 -8 -30 -23 -41 -32 -12 -10 -30 -18 -40 -18 -18 0 -48 -21
-48 -35 0 -12 -47 -53 -66 -57 -10 -2 -18 -11 -18 -19 1 -11 -6 -14 -22 -11
-17 3 -24 0 -24 -11 0 -8 6 -18 13 -21 9 -5 9 -7 -1 -12 -7 -3 -20 -13 -29
-22 -12 -12 -18 -13 -21 -4 -5 17 -42 15 -42 -3 0 -8 -7 -15 -15 -15 -8 0 -15
-9 -15 -20 0 -13 -7 -20 -20 -20 -11 0 -20 4 -20 8 0 4 9 14 20 22 11 8 20 20
20 27 0 7 7 13 15 13 8 0 15 5 15 11 0 12 21 33 60 59 13 8 33 25 46 38 13 12
37 25 54 28 41 9 38 24 -5 24 -19 0 -35 5 -35 10 0 6 6 10 13 10 8 0 24 9 37
20 13 11 36 20 52 20 29 0 38 14 16 24 -9 3 -8 8 5 16 9 6 17 16 17 21 0 12
44 55 80 79 13 8 28 21 34 28 20 23 34 36 66 62 61 49 100 88 100 99 0 6 9 11
20 11 11 0 20 4 20 9 0 5 9 13 20 16 11 3 20 13 20 21 0 15 18 33 81 84 17 14
44 37 60 53 16 15 36 27 44 27 8 0 15 5 15 10 0 6 -4 10 -10 10 -5 0 -10 7
-10 15 0 8 9 15 20 15 11 0 20 6 20 13 0 7 10 19 21 27 21 14 31 24 55 52 6 7
21 20 34 28 38 26 90 76 90 87 0 6 6 13 13 16 6 2 9 7 6 11 -4 4 -22 -7 -40
-23 -80 -73 -83 -75 -87 -63 -2 7 -10 12 -19 12 -10 0 -12 6 -7 23 3 12 10 23
15 25 5 2 23 17 40 33 17 16 39 29 49 29 10 0 22 9 25 20 3 11 15 20 25 20 10
0 25 6 32 14 8 7 29 17 46 21 38 8 43 25 7 25 -14 0 -25 5 -25 11 0 18 -42 50
-58 44 -7 -3 -16 -5 -18 -5 -2 0 -4 -7 -4 -15 0 -9 -6 -12 -15 -9 -19 8 -20
54 -1 54 8 0 16 -6 19 -12 2 -7 8 -10 12 -6 15 14 -27 41 -73 46 -26 3 -53 11
-60 19 -7 7 -24 13 -38 13 -13 0 -24 5 -24 10 0 6 -13 10 -30 10 -16 0 -30 -4
-30 -10 0 -5 -11 -10 -25 -10 -14 0 -25 5 -25 10 0 6 -9 10 -20 10 -11 0 -20
5 -20 10 0 6 -9 10 -20 10 -11 0 -20 -4 -20 -10 0 -5 9 -10 20 -10 11 0 20 -7
20 -15 0 -8 5 -15 10 -15 15 0 12 -19 -4 -36 -20 -20 -76 -19 -76 2 0 8 4 13
9 10 11 -7 41 3 41 14 0 5 -9 11 -19 15 -11 3 -23 15 -26 26 -8 26 -56 26 -75
-1z m-160 -46 c0 -8 -4 -14 -9 -14 -5 0 -13 -9 -16 -20 -3 -11 -15 -20 -26
-20 -10 0 -19 -7 -19 -15 0 -8 -9 -15 -20 -15 -26 0 -25 18 2 41 11 11 18 22
13 27 -4 4 -10 1 -12 -5 -5 -15 -43 -18 -43 -4 0 15 31 22 69 15 27 -4 32 -3
21 5 -13 9 -13 12 -1 20 18 12 41 3 41 -15z m190 5 c0 -14 -26 -39 -40 -39 -6
0 -25 -13 -42 -30 -16 -16 -25 -30 -18 -30 6 0 13 7 16 15 4 8 14 15 24 15 10
0 25 7 34 15 17 17 46 20 46 5 0 -5 -4 -10 -10 -10 -5 0 -10 -7 -10 -15 0 -8
-4 -15 -8 -15 -12 0 -52 -35 -52 -45 0 -8 -63 -68 -124 -120 -20 -16 -36 -35
-36 -42 0 -7 -9 -13 -20 -13 -13 0 -20 -7 -20 -20 0 -11 -4 -20 -8 -20 -12 0
-61 -40 -88 -72 -6 -7 -22 -20 -34 -28 -13 -8 -40 -32 -62 -52 -21 -21 -45
-38 -53 -38 -8 0 -15 -7 -15 -15 0 -8 -9 -15 -20 -15 -11 0 -20 -7 -20 -15 0
-8 -9 -15 -19 -15 -11 0 -23 -9 -26 -20 -3 -11 -10 -20 -14 -20 -7 0 -22 -11
-68 -50 -16 -13 -23 -13 -23 1 0 12 20 31 59 59 12 8 21 19 21 24 0 5 11 19
25 32 14 13 25 30 25 39 0 8 4 15 9 15 5 0 23 14 41 30 18 17 36 30 41 30 5 0
9 7 9 15 0 19 81 95 102 95 4 0 8 9 8 20 0 11 -5 20 -10 20 -6 0 3 14 21 31
17 17 33 28 36 25 3 -3 -7 -16 -22 -30 -16 -15 -24 -26 -19 -26 5 0 17 9 27
20 9 11 26 20 37 20 22 0 28 34 8 44 -7 3 -4 4 8 1 22 -6 72 30 60 42 -4 4
-11 1 -16 -7 -5 -8 -12 -11 -17 -7 -9 10 18 28 34 23 6 -3 21 4 34 15 12 10
30 19 41 19 11 0 18 7 18 20 0 26 -8 25 -31 -2 -11 -11 -22 -18 -26 -14 -4 3
3 14 16 24 12 9 31 25 43 35 12 9 25 17 29 17 4 0 11 9 14 20 4 13 18 23 36
27 16 3 29 9 29 14 0 5 5 9 10 9 6 0 10 -5 10 -11z m220 1 c0 -5 -4 -10 -9
-10 -5 0 -17 -7 -25 -16 -16 -16 -21 -8 -10 20 7 17 44 22 44 6z m157 -36 c14
-13 14 -17 2 -25 -8 -5 -22 -9 -31 -9 -10 0 -18 -4 -18 -10 0 -5 -4 -10 -10
-10 -18 0 -11 18 10 25 11 3 20 15 20 26 0 23 6 24 27 3z m-97 -14 c0 -5 -4
-10 -8 -10 -10 0 -42 -25 -97 -75 -24 -22 -58 -51 -75 -65 -32 -25 -46 -39
-66 -62 -6 -7 -21 -20 -34 -28 -39 -27 -90 -76 -90 -88 0 -7 -7 -12 -16 -12
-18 0 -44 -23 -44 -39 0 -6 -7 -11 -16 -11 -8 0 -33 -17 -54 -37 -22 -21 -46
-44 -54 -50 -18 -15 -46 -17 -46 -3 0 6 4 10 9 10 9 0 35 22 115 95 24 22 54
47 66 55 13 8 28 21 34 28 25 29 35 38 56 52 34 23 60 47 60 54 0 4 6 14 13
21 29 33 37 45 37 55 0 5 4 10 9 10 8 0 45 30 92 75 9 8 23 15 32 15 10 0 17
5 17 10 0 6 14 10 30 10 17 0 30 -4 30 -10z m25 -19 c-3 -12 -10 -21 -15 -21
-4 0 -21 -12 -38 -27 -16 -16 -39 -34 -50 -42 -11 -8 -23 -25 -27 -38 -3 -13
-9 -23 -14 -23 -5 0 -23 -13 -41 -30 -18 -16 -40 -30 -50 -30 -10 0 -21 -6
-24 -12 -3 -7 -3 -2 1 12 3 14 15 33 27 42 12 10 33 28 49 40 15 13 47 41 71
63 24 22 54 47 66 55 13 8 28 20 34 26 15 16 19 10 11 -15z m-651 -28 c0 -20
-6 -39 -13 -41 -6 -2 -18 -11 -27 -19 -8 -8 -18 -12 -22 -9 -3 4 0 11 8 16 54
33 64 50 30 50 -11 0 -20 -4 -20 -10 0 -5 -9 -10 -20 -10 -11 0 -20 5 -20 10
0 6 4 10 8 10 5 0 19 9 32 20 34 30 46 25 44 -17z m476 22 c0 -8 -12 -18 -27
-21 -16 -4 -31 -12 -35 -18 -4 -6 -11 -7 -15 -2 -4 5 -3 11 4 13 6 2 21 13 34
24 26 23 39 24 39 4z m260 -26 c0 -15 -26 -39 -43 -39 -8 0 -36 -20 -61 -45
-26 -25 -56 -45 -66 -45 -10 0 -20 -6 -23 -12 -2 -7 -8 -9 -13 -5 -5 4 -2 12
6 17 21 12 65 49 117 98 42 40 83 55 83 31z m-60 -89 c0 -5 -4 -10 -9 -10 -5
0 -12 -11 -15 -25 -4 -14 -11 -25 -16 -25 -6 0 -10 -6 -10 -13 0 -7 -10 -19
-21 -27 -12 -8 -40 -32 -61 -53 -29 -28 -50 -39 -78 -41 -42 -3 -63 -19 -74
-54 -4 -12 -11 -22 -16 -22 -4 0 -22 -13 -40 -30 -18 -16 -40 -30 -50 -30 -10
0 -22 -9 -25 -20 -3 -11 -10 -20 -14 -20 -4 0 -18 -9 -31 -20 -13 -11 -29 -20
-37 -20 -7 0 -31 -18 -53 -40 -22 -22 -47 -40 -55 -40 -9 0 -33 -17 -55 -37
-21 -21 -53 -49 -70 -63 -17 -14 -51 -43 -75 -65 -25 -22 -51 -46 -59 -52 -18
-15 -46 -17 -46 -3 0 6 -7 10 -15 10 -8 0 -15 -9 -15 -20 0 -15 -9 -22 -30
-26 -16 -4 -30 -11 -30 -16 0 -9 -64 -72 -120 -118 -17 -14 -37 -31 -45 -37
-16 -15 -35 -17 -35 -4 0 4 11 17 25 27 14 10 25 23 25 29 0 6 10 17 21 25 12
8 41 33 64 55 24 22 58 51 75 65 17 14 37 31 43 38 60 66 117 93 117 57 0 -8
-8 -15 -18 -15 -22 0 -62 -32 -62 -49 0 -26 21 -11 128 88 26 25 39 42 29 38
-10 -4 -25 -7 -33 -7 -8 0 -14 -9 -14 -20 0 -11 -7 -20 -15 -20 -8 0 -15 9
-15 20 0 11 6 20 13 20 8 0 25 9 38 21 17 14 32 19 51 15 18 -4 32 0 40 10 25
29 36 39 58 54 12 8 42 33 66 55 24 22 57 51 74 65 17 14 52 44 78 68 26 23
57 51 69 62 12 11 28 20 35 20 8 0 21 8 30 18 28 29 47 42 62 42 8 0 17 6 19
13 4 9 8 9 15 -1 7 -11 16 -7 41 17 17 17 36 31 41 31 6 0 10 9 10 20 0 15 9
22 30 26 16 4 32 15 35 25 7 20 25 26 25 9z m-740 -43 c0 -7 -9 -19 -21 -27
-41 -29 -69 -59 -69 -75 0 -8 -9 -15 -20 -15 -11 0 -20 -7 -20 -15 0 -8 -4
-15 -9 -15 -12 0 -101 -86 -101 -97 0 -5 -10 -15 -21 -23 -12 -8 -41 -33 -64
-55 -24 -22 -58 -51 -74 -65 -60 -48 -101 -89 -101 -99 0 -6 -7 -11 -16 -11
-18 0 -44 -23 -44 -39 0 -6 -7 -11 -16 -11 -12 0 -15 -6 -11 -22 5 -17 -2 -30
-30 -55 -19 -18 -39 -33 -44 -33 -5 0 -9 -9 -9 -20 0 -24 -6 -25 -26 -6 -20
20 -17 49 6 66 11 8 20 20 20 27 0 6 9 15 20 18 11 3 20 11 20 16 0 5 9 9 20
9 13 0 22 9 26 25 3 14 9 25 14 25 11 0 50 36 50 46 0 5 10 16 21 24 12 8 27
21 33 28 25 29 35 38 56 52 54 37 65 51 50 61 -11 7 -7 8 13 3 18 -4 27 -2 27
6 0 13 20 33 60 60 38 25 70 60 70 75 0 8 4 15 9 15 9 0 45 30 117 98 47 43
64 51 64 29z m-260 -27 c0 -5 -4 -10 -10 -10 -5 0 -10 5 -10 10 0 6 5 10 10
10 6 0 10 -4 10 -10z m930 -80 c0 -5 -4 -10 -8 -10 -8 0 -21 -10 -68 -49 -7
-6 -14 -16 -17 -23 -2 -7 -8 -10 -12 -6 -5 4 4 19 18 32 15 14 27 30 27 36 0
5 9 10 20 10 11 0 20 5 20 10 0 6 5 10 10 10 6 0 10 -4 10 -10z m-300 -55 c0
-8 -9 -15 -19 -15 -12 0 -21 -9 -25 -25 -4 -14 -11 -25 -16 -25 -5 0 -20 -11
-32 -23 -13 -13 -36 -27 -50 -30 -15 -4 -30 -16 -33 -27 -3 -11 -10 -20 -14
-20 -7 0 -22 -11 -68 -50 -16 -13 -43 -13 -43 0 0 6 4 10 8 10 11 0 46 27 107
85 73 68 96 85 117 85 10 0 18 4 18 9 0 12 29 41 41 41 5 0 9 -7 9 -15z m320
-5 c0 -5 -4 -10 -10 -10 -5 0 -10 -6 -10 -13 0 -7 -10 -19 -22 -27 -11 -8 -33
-27 -48 -42 -15 -16 -33 -28 -39 -28 -7 0 -24 -12 -38 -26 -24 -24 -25 -26 -5
-20 16 6 22 3 22 -8 0 -9 -4 -16 -9 -16 -5 0 -30 -19 -55 -42 -25 -24 -59 -54
-76 -68 -17 -14 -51 -43 -75 -65 -23 -22 -53 -47 -65 -55 -13 -8 -40 -32 -61
-52 -24 -24 -47 -38 -63 -38 -34 0 -32 19 5 50 16 14 49 43 73 65 56 50 88 75
98 75 4 0 8 8 8 19 0 10 12 27 26 37 14 10 40 31 56 47 17 15 34 27 39 27 5 0
11 11 15 25 4 16 13 25 25 25 10 0 19 7 19 15 0 8 7 15 15 15 14 0 42 24 120
99 21 21 55 28 55 11z m-1157 -37 c-7 -2 -19 -2 -25 0 -7 3 -2 5 12 5 14 0 19
-2 13 -5z m357 -8 c0 -8 -4 -15 -8 -15 -11 0 -52 -35 -52 -44 0 -4 -6 -14 -12
-21 -30 -33 -38 -45 -38 -55 0 -5 -4 -10 -9 -10 -10 0 -71 -55 -71 -64 0 -4
-11 -17 -25 -30 -14 -13 -25 -27 -25 -31 0 -8 -23 -30 -59 -55 -12 -8 -21 -20
-21 -27 0 -7 -5 -13 -10 -13 -11 0 -25 -10 -65 -47 -30 -28 -35 -29 -35 -3 0
11 4 20 8 20 14 0 52 36 52 49 0 6 4 11 10 11 5 0 12 11 16 25 3 14 10 25 14
25 12 0 70 57 70 68 0 6 9 13 19 17 11 3 23 16 27 28 4 12 16 30 28 39 12 10
34 28 49 40 16 13 34 29 40 36 33 35 77 72 89 72 4 0 8 -7 8 -15z m630 -35 c0
-5 -4 -10 -10 -10 -5 0 -10 5 -10 10 0 6 5 10 10 10 6 0 10 -4 10 -10z m-480
-25 c0 -8 -4 -15 -10 -15 -5 0 -10 -9 -10 -20 0 -13 -7 -20 -20 -20 -11 0 -20
-6 -20 -14 0 -8 -9 -17 -19 -21 -11 -3 -23 -15 -26 -26 -4 -10 -10 -19 -14
-19 -9 0 -42 -25 -97 -75 -68 -62 -72 -65 -88 -65 -8 0 -16 -6 -19 -12 -2 -7
-8 -10 -12 -6 -8 8 12 29 55 58 13 8 28 21 34 28 25 29 35 38 56 52 34 23 90
75 90 84 0 4 15 21 33 37 17 16 37 33 42 38 15 15 25 13 25 -4z m20 -101 c0
-7 -25 -30 -59 -54 -12 -8 -21 -20 -21 -27 0 -7 -7 -13 -15 -13 -8 0 -28 -12
-44 -27 -62 -57 -94 -83 -103 -83 -6 0 4 14 22 30 18 17 36 30 41 30 5 0 9 7
9 15 0 8 9 15 20 15 12 0 20 7 20 17 0 21 47 63 69 63 9 0 23 9 31 20 14 19
30 27 30 14z m220 -2 c0 -4 -10 -14 -21 -22 -12 -8 -41 -33 -65 -55 -64 -59
-67 -61 -96 -68 -15 -4 -29 -16 -33 -27 -3 -10 -15 -22 -26 -25 -10 -4 -19
-11 -19 -16 0 -5 -4 -9 -10 -9 -21 0 -8 23 36 66 26 24 53 44 61 44 8 0 25 10
38 23 39 36 50 44 71 51 11 3 26 15 34 26 15 20 30 27 30 12z m-40 -102 c0
-17 -123 -130 -142 -130 -4 0 -8 -7 -8 -15 0 -16 -50 -68 -90 -95 -12 -8 -42
-33 -66 -55 -23 -22 -58 -52 -76 -68 -51 -42 -115 -98 -159 -139 -22 -21 -46
-38 -53 -38 -8 0 -29 -14 -47 -30 -19 -17 -40 -35 -47 -41 -7 -6 -29 -12 -48
-13 -20 -2 -42 -12 -53 -25 -10 -11 -23 -21 -30 -21 -17 0 -13 40 4 46 8 4 15
11 15 18 0 6 9 18 20 26 11 8 20 19 20 24 0 10 39 46 51 46 4 0 10 9 14 19 3
11 15 23 26 26 10 4 19 15 19 26 0 10 4 19 8 19 8 0 23 11 69 50 7 5 15 10 18
10 3 0 11 5 18 10 49 42 62 50 78 50 10 0 20 9 24 19 3 11 15 23 26 26 10 4
19 11 19 16 0 5 9 9 20 9 11 0 20 7 20 15 0 8 5 15 10 15 18 0 11 -25 -11 -40
-12 -8 -41 -33 -65 -55 -24 -22 -57 -51 -74 -65 -17 -14 -51 -43 -75 -65 -23
-22 -52 -47 -64 -55 -11 -8 -21 -18 -21 -23 0 -4 -21 -28 -46 -52 -25 -25 -41
-45 -36 -45 10 0 17 7 48 42 6 7 22 20 34 28 13 8 46 38 75 65 29 28 63 57 75
65 35 23 90 79 90 90 0 5 9 10 20 10 13 0 20 7 20 20 0 11 4 20 10 20 5 0 29
19 54 43 25 23 59 53 76 67 17 14 37 31 45 38 7 6 18 12 24 12 6 0 11 7 11 15
0 8 9 15 20 15 11 0 20 7 20 15 0 8 9 15 20 15 11 0 20 4 20 10 0 5 11 12 25
16 14 3 25 10 25 15 0 5 5 9 10 9 6 0 10 -5 10 -10z m-570 -80 c0 -5 -4 -10
-8 -10 -13 0 -52 -36 -52 -46 0 -5 -10 -16 -21 -24 -12 -8 -27 -21 -33 -28
-36 -42 -77 -72 -99 -72 -20 0 -20 0 1 18 11 9 30 24 41 32 12 8 21 20 21 27
0 7 5 13 11 13 14 0 39 25 39 39 0 6 7 11 15 11 15 0 32 11 58 37 15 15 27 16
27 3z m30 -105 c0 -8 -34 -45 -42 -45 -12 0 -10 19 5 35 11 14 37 20 37 10z
m370 -79 c0 -2 -3 -11 -6 -20 -9 -23 -24 -20 -24 4 0 11 7 20 15 20 8 0 15 -2
15 -4z m-137 -124 c-3 -13 -16 -25 -32 -29 -14 -3 -29 -11 -33 -17 -4 -6 -10
-7 -15 -3 -4 5 -1 12 7 17 30 18 53 35 64 46 15 16 16 13 9 -14z m-482 -51
c-19 -18 -33 -42 -36 -61 -4 -36 -11 -47 -22 -36 -4 4 -1 11 7 16 12 8 11 10
-7 10 -12 0 -29 -7 -38 -16 -9 -9 -19 -13 -23 -9 -4 4 -1 10 6 12 6 3 12 11
12 19 0 8 7 14 16 14 18 0 44 23 44 39 0 6 5 11 11 11 6 0 17 7 25 15 9 8 20
15 26 15 5 0 -4 -13 -21 -29z m69 -61 c0 -5 -4 -10 -8 -10 -11 0 -52 -35 -52
-44 0 -7 -58 -66 -65 -66 -3 0 -5 7 -5 15 0 8 4 15 9 15 5 0 13 10 17 23 9 28
42 57 66 57 10 0 18 5 18 10 0 6 5 10 10 10 6 0 10 -4 10 -10z m280 -35 c0 -8
-4 -15 -10 -15 -5 0 -10 -9 -10 -20 0 -11 -4 -20 -8 -20 -10 0 -42 -24 -100
-78 -26 -23 -56 -51 -68 -61 -12 -10 -36 -22 -54 -26 -30 -7 -32 -6 -19 9 27
32 37 41 59 56 12 8 42 33 66 55 24 22 57 51 74 65 17 14 37 30 43 37 16 17
27 16 27 -2z m-130 -45 c0 -5 -4 -10 -10 -10 -5 0 -10 -7 -10 -15 0 -8 -8 -15
-18 -15 -19 0 -62 -31 -62 -45 0 -6 -60 -66 -104 -102 -18 -15 -46 -17 -46 -3
0 6 5 10 10 10 6 0 10 6 10 13 0 7 9 19 21 27 11 8 30 23 41 33 12 9 25 17 29
17 4 0 11 9 14 20 3 11 14 20 24 20 16 0 45 19 76 49 13 13 25 13 25 1z m350
0 c0 -5 -4 -10 -10 -10 -5 0 -10 -7 -10 -15 0 -8 -4 -15 -9 -15 -11 0 -81 -66
-81 -77 0 -5 -14 -19 -31 -33 -17 -14 -41 -35 -55 -48 -22 -21 -24 -22 -24 -4
0 11 11 28 25 38 14 10 25 23 25 29 0 6 9 17 21 25 41 29 56 45 63 67 4 12 16
25 27 28 10 4 19 11 19 16 0 5 9 9 20 9 11 0 20 -4 20 -10z m-670 -35 c0 -8
-9 -15 -20 -15 -11 0 -20 7 -20 15 0 8 9 15 20 15 11 0 20 -7 20 -15z m540
-23 c0 -4 -10 -14 -21 -22 -48 -33 -89 -79 -89 -99 0 -11 -4 -21 -10 -21 -5 0
-10 -6 -10 -13 0 -7 -9 -19 -21 -27 -39 -28 -59 -47 -59 -59 0 -6 -5 -11 -11
-11 -6 0 -17 -6 -24 -12 -8 -7 -28 -24 -45 -38 -17 -14 -51 -44 -76 -67 -46
-43 -84 -56 -84 -28 0 8 5 15 10 15 6 0 10 6 10 13 0 7 10 19 21 27 12 8 39
32 60 53 20 20 43 37 51 37 7 0 20 5 28 10 13 9 13 11 0 20 -13 9 -13 11 0 20
8 5 24 8 35 6 11 -2 14 -1 8 1 -7 3 -13 9 -13 14 0 9 13 13 40 10 13 -2 13 -1
0 8 -12 8 -11 13 10 31 15 13 31 18 44 14 16 -4 18 -3 6 5 -12 8 -10 13 10 30
14 11 30 25 36 30 6 5 19 11 30 15 11 3 26 15 34 26 15 20 30 27 30 12z m-450
-77 c0 -8 -34 -45 -42 -45 -12 0 -10 19 5 35 11 14 37 20 37 10z m210 -51 c0
-3 -7 -12 -15 -21 -20 -19 -32 -10 -14 11 14 15 29 21 29 10z m260 -2 c0 -4
-9 -14 -21 -22 -11 -8 -30 -23 -41 -32 -12 -10 -25 -18 -29 -18 -4 0 -11 -9
-14 -20 -3 -11 -11 -20 -16 -20 -5 0 -9 9 -9 20 0 11 7 20 15 20 8 0 15 6 15
14 0 8 9 18 20 21 11 3 20 11 20 16 0 5 9 9 20 9 11 0 20 5 20 10 0 6 5 10 10
10 6 0 10 -4 10 -8z m-360 -19 c0 -14 -53 -53 -72 -53 -30 0 -21 30 12 37 17
3 30 9 30 14 0 5 7 9 15 9 8 0 15 -3 15 -7z m-160 -63 c0 -5 7 -10 15 -10 8 0
15 -4 15 -9 0 -23 -14 -41 -31 -41 -15 0 -19 7 -19 35 0 19 5 35 10 35 6 0 10
-4 10 -10z m285 -89 c-3 -12 -10 -21 -14 -21 -4 0 -18 -9 -31 -20 -27 -24 -40
-25 -40 -5 0 8 4 15 9 15 5 0 23 14 41 30 35 33 46 33 35 1z m-45 -71 c0 -5
-4 -10 -10 -10 -5 0 -10 5 -10 10 0 6 5 10 10 10 6 0 10 -4 10 -10z m-60 -41
c0 -14 -25 -39 -39 -39 -6 0 -11 -7 -11 -15 0 -8 -9 -15 -20 -15 -15 0 -20 7
-20 25 0 18 5 25 20 25 11 0 20 4 20 9 0 8 16 16 43 20 4 0 7 -4 7 -10z"/>
<path d="M2040 3086 c0 -8 -6 -16 -12 -19 -7 -2 -10 -8 -6 -12 8 -9 38 18 38
34 0 6 -4 11 -10 11 -5 0 -10 -6 -10 -14z"/>
<path d="M870 2610 c0 -5 5 -10 10 -10 6 0 10 5 10 10 0 6 -4 10 -10 10 -5 0
-10 -4 -10 -10z"/>
<path d="M2730 3347 c0 -7 -9 -19 -20 -27 -11 -8 -20 -20 -20 -27 0 -7 -4 -13
-10 -13 -5 0 -10 -6 -10 -14 0 -8 -6 -16 -12 -19 -7 -2 -10 -8 -6 -12 8 -8 38
18 38 34 0 5 9 13 20 16 11 4 20 15 20 26 0 11 7 22 15 25 8 4 15 10 15 15 0
5 -7 9 -15 9 -8 0 -15 -6 -15 -13z"/>
<path d="M2346 3104 c-9 -24 -7 -27 9 -10 17 17 19 26 6 26 -5 0 -12 -7 -15
-16z"/>
<path d="M3540 3110 c0 -5 5 -10 10 -10 6 0 10 5 10 10 0 6 -4 10 -10 10 -5 0
-10 -4 -10 -10z"/>
<path d="M2217 2976 c-4 -10 -1 -13 9 -9 15 6 19 23 5 23 -5 0 -11 -7 -14 -14z"/>
<path d="M3690 2636 c0 -27 -5 -36 -22 -42 -48 -15 -65 -54 -23 -54 16 0 25 6
25 15 0 8 5 15 10 15 6 0 10 7 10 15 0 8 5 15 10 15 6 0 10 16 10 35 0 19 -4
35 -10 35 -5 0 -10 -15 -10 -34z"/>
<path d="M3600 2511 c0 -5 -9 -13 -20 -16 -11 -3 -20 -11 -20 -16 0 -14 -26
-39 -39 -39 -6 0 -11 -4 -11 -10 0 -5 7 -10 16 -10 13 0 11 -6 -10 -25 -14
-13 -26 -31 -26 -40 0 -8 -4 -15 -8 -15 -5 0 -18 -8 -30 -17 -12 -10 -31 -26
-43 -35 -13 -10 -20 -21 -16 -24 4 -4 15 2 24 13 10 11 33 24 52 28 37 8 82
46 63 53 -18 6 -14 20 8 27 11 3 20 11 20 17 0 5 14 23 30 38 17 15 30 33 30
39 0 6 5 11 10 11 6 0 10 7 10 15 0 8 -9 15 -20 15 -11 0 -20 -4 -20 -9z"/>
<path d="M3670 2505 c0 -8 5 -15 10 -15 6 0 10 7 10 15 0 8 -4 15 -10 15 -5 0
-10 -7 -10 -15z"/>
<path d="M3683 2463 c-7 -2 -13 -15 -13 -29 0 -21 3 -23 30 -17 23 4 30 2 30
-10 0 -12 -19 -27 -34 -27 -9 0 -46 39 -46 49 0 8 -5 7 -16 -3 -8 -9 -24 -16
-35 -16 -10 0 -19 -7 -19 -15 0 -8 -4 -15 -10 -15 -5 0 -10 -15 -10 -34 0 -26
-5 -36 -19 -41 -11 -3 -23 -15 -26 -26 -4 -10 -10 -19 -14 -19 -8 0 -43 -28
-102 -82 -34 -32 -39 -34 -39 -13 0 8 4 15 9 15 5 0 13 10 17 23 4 12 12 25
18 29 6 4 7 11 2 15 -5 4 -11 2 -13 -5 -3 -7 -11 -19 -19 -26 -8 -8 -14 -19
-14 -25 0 -5 -9 -13 -20 -16 -11 -3 -20 -11 -20 -16 0 -5 -9 -9 -19 -9 -11 0
-21 -5 -23 -11 -2 -5 -16 -12 -32 -13 -15 -2 -31 -8 -35 -13 -3 -6 -18 -13
-33 -17 -16 -3 -28 -11 -28 -16 0 -6 -11 -10 -25 -10 -16 0 -25 -6 -25 -15 0
-8 5 -15 10 -15 6 0 10 -7 10 -16 0 -13 -7 -15 -29 -11 -24 5 -36 0 -61 -23
-18 -17 -34 -30 -37 -30 -9 0 8 55 20 62 6 4 9 10 5 13 -9 9 -48 -32 -48 -50
0 -8 -4 -15 -10 -15 -5 0 -10 -7 -10 -15 0 -11 12 -15 50 -15 52 0 60 4 109
53 16 15 34 27 40 27 7 0 19 7 27 15 9 8 23 15 32 15 10 0 26 11 36 25 10 14
27 25 37 25 11 0 19 5 19 11 0 11 24 39 34 39 3 0 6 -5 6 -11 0 -17 -40 -49
-62 -49 -10 0 -18 -7 -18 -17 0 -22 -47 -63 -72 -63 -11 0 -18 -7 -18 -19 0
-11 -9 -23 -20 -26 -11 -3 -20 -11 -20 -16 0 -5 -7 -9 -15 -9 -8 0 -15 -5 -15
-11 0 -15 -26 -39 -43 -39 -9 0 -36 -20 -61 -45 -49 -47 -66 -55 -66 -30 0 8
5 15 10 15 6 0 10 7 10 15 0 8 5 15 10 15 6 0 10 11 10 25 0 20 -5 25 -26 25
-14 0 -32 -6 -39 -12 -25 -22 -40 -37 -52 -50 -23 -25 -42 -38 -57 -38 -8 0
-35 -19 -59 -42 -25 -24 -60 -54 -77 -68 -17 -14 -37 -31 -45 -37 -7 -7 -18
-13 -24 -13 -6 0 -11 -4 -11 -9 0 -5 -17 -12 -37 -16 -21 -4 -41 -12 -44 -17
-4 -6 -30 -13 -58 -16 -28 -2 -51 -8 -51 -13 0 -5 -7 -9 -15 -9 -9 0 -26 -11
-39 -25 -24 -25 -56 -34 -56 -15 0 23 -50 60 -80 60 -16 0 -30 -4 -30 -10 0
-5 -9 -10 -20 -10 -11 0 -20 -4 -20 -10 0 -5 -9 -10 -20 -10 -11 0 -20 5 -20
11 0 6 -6 5 -14 -3 -7 -7 -24 -20 -36 -28 -13 -8 -33 -25 -46 -37 -29 -28 -34
-29 -34 -1 0 21 0 21 -17 1 -10 -11 -31 -23 -47 -27 l-29 -7 33 31 c22 20 40
30 53 26 23 -6 47 2 47 16 0 5 -8 17 -17 26 -12 12 -18 13 -21 4 -4 -14 -52
-16 -52 -2 0 6 5 10 10 10 6 0 10 7 10 15 0 8 -9 15 -20 15 -11 0 -20 -6 -20
-13 0 -7 -9 -19 -20 -27 -11 -8 -20 -18 -20 -22 0 -5 -16 -24 -35 -42 -19 -19
-35 -39 -35 -44 0 -6 -9 -14 -20 -17 -11 -3 -20 -11 -20 -16 0 -5 -7 -9 -15
-9 -9 0 -26 -11 -39 -25 -24 -26 -36 -31 -36 -16 0 5 9 13 20 16 11 3 20 14
20 24 0 10 12 27 26 37 37 27 84 71 84 78 0 4 11 17 25 30 14 13 25 28 25 35
0 6 5 11 10 11 6 0 10 6 10 14 0 8 6 16 12 18 9 3 8 9 -4 22 -16 16 -20 15
-56 -21 -22 -21 -50 -46 -63 -56 -21 -15 -22 -19 -9 -28 12 -8 11 -9 -6 -4
-16 4 -33 -6 -66 -37 -25 -24 -56 -50 -68 -58 -13 -8 -28 -21 -34 -28 -6 -7
-17 -18 -24 -25 -7 -7 -24 -23 -38 -36 -14 -13 -28 -20 -32 -16 -4 4 -1 10 6
12 6 3 12 9 12 15 0 5 20 28 45 51 67 63 73 67 90 67 8 0 15 5 15 11 0 6 16
26 37 45 20 19 33 38 28 42 -4 4 -10 1 -12 -6 -6 -15 -23 -32 -53 -52 -12 -8
-28 -21 -36 -27 -15 -15 -44 -17 -44 -3 0 6 4 10 8 10 8 0 23 11 69 50 7 5 19
10 27 10 7 0 17 7 20 16 4 10 13 13 24 10 11 -4 28 2 42 14 13 11 18 20 12 20
-7 0 -12 9 -12 20 0 11 4 20 8 20 11 0 52 35 52 44 0 14 -37 4 -50 -14 -20
-28 -70 -27 -70 0 0 11 -7 23 -15 26 -11 4 -15 21 -15 55 0 27 -4 49 -10 49
-5 0 -10 18 -10 40 0 22 5 40 10 40 6 0 0 11 -14 25 -33 33 -74 33 -81 2 -4
-13 -16 -30 -27 -38 -11 -8 -34 -26 -50 -41 -17 -16 -34 -28 -39 -28 -14 0
-11 28 4 33 7 2 8 8 3 13 -5 5 -11 4 -13 -4 -6 -15 -22 -32 -53 -52 -58 -40
-74 -63 -47 -73 6 -2 8 -8 4 -13 -4 -5 -12 -3 -16 5 -6 9 -19 2 -50 -28 -23
-23 -46 -41 -51 -41 -6 0 -10 -9 -10 -20 0 -13 -7 -20 -20 -20 -11 0 -20 -5
-20 -12 0 -13 -68 -78 -81 -78 -5 0 -9 -7 -9 -15 0 -20 13 -19 40 5 15 13 31
18 44 14 30 -9 30 -10 7 -33 -25 -25 -31 -26 -31 -6 0 18 -9 19 -30 4 -11 -8
-12 -12 -2 -16 14 -6 16 -33 2 -33 -5 0 -10 -7 -10 -15 0 -8 4 -15 9 -15 5 0
16 7 25 15 22 22 36 18 36 -10 0 -16 6 -25 16 -25 8 0 22 -7 30 -15 9 -8 11
-15 5 -15 -6 0 -11 -9 -11 -20 0 -13 7 -20 20 -20 13 0 20 7 20 20 0 12 7 20
16 20 9 0 29 12 44 28 15 15 37 34 48 42 12 8 22 18 22 23 0 9 45 52 101 97
16 14 50 43 74 65 25 22 51 46 59 53 18 14 46 16 46 2 0 -5 -4 -10 -9 -10 -9
0 -35 -22 -115 -95 -24 -22 -53 -47 -65 -55 -11 -8 -21 -19 -21 -24 0 -7 -35
-43 -84 -83 -8 -7 -22 -13 -31 -13 -8 0 -15 -7 -15 -15 0 -8 -7 -15 -15 -15
-8 0 -15 -9 -15 -20 0 -11 -4 -20 -10 -20 -5 0 -10 -9 -10 -20 0 -11 7 -20 15
-20 10 0 15 -10 15 -34 0 -19 6 -37 13 -39 9 -4 9 -6 0 -6 -12 -1 -19 -41 -8
-41 3 0 17 10 30 23 56 54 101 75 89 42 -4 -8 -10 -15 -15 -15 -5 0 -9 -7 -9
-15 0 -8 -4 -15 -10 -15 -5 0 -10 -5 -10 -11 0 -14 25 -39 39 -39 6 0 11 -7
11 -15 0 -8 9 -15 20 -15 11 0 20 -7 20 -15 0 -12 7 -14 28 -9 15 4 31 12 35
18 6 8 10 7 13 -1 4 -8 14 -4 30 12 14 14 30 25 36 25 6 0 1 -8 -10 -19 -12
-10 -22 -23 -22 -29 0 -6 -6 -12 -12 -15 -7 -2 -9 -8 -5 -13 4 -5 12 -2 17 5
7 12 11 12 24 -2 9 -8 16 -20 16 -26 0 -6 9 -11 20 -11 11 0 20 7 20 15 0 8 4
15 9 15 5 0 13 10 17 23 4 12 15 29 25 38 11 9 19 21 19 28 0 6 4 11 9 11 5 0
30 19 55 42 25 24 59 54 76 68 17 14 37 31 45 38 7 6 18 12 23 12 6 0 25 13
43 30 123 109 118 103 119 143 0 30 4 37 19 37 11 0 26 7 35 15 8 8 28 15 45
15 43 0 41 -31 -4 -74 -19 -19 -35 -39 -35 -45 0 -6 -4 -11 -10 -11 -5 0 -34
-24 -64 -52 -76 -73 -83 -78 -101 -78 -8 0 -15 -5 -15 -11 0 -7 -16 -26 -35
-45 -19 -18 -35 -37 -35 -43 0 -6 -9 -11 -20 -11 -11 0 -20 -7 -20 -15 0 -8
-9 -15 -20 -15 -11 0 -20 -7 -20 -15 0 -19 -69 -85 -90 -85 -15 0 -70 -55 -70
-69 0 -6 11 -11 25 -11 14 0 25 -4 25 -10 0 -5 22 -10 49 -10 41 0 51 4 56 20
9 29 85 29 85 0 0 -13 9 -22 25 -26 14 -3 25 -10 25 -14 0 -4 28 -10 62 -12
35 -3 64 -10 66 -16 4 -14 122 -17 122 -2 0 5 16 12 35 16 22 4 35 12 35 21 0
12 7 14 30 10 39 -8 60 0 60 24 0 10 6 19 14 19 8 0 20 2 28 3 7 2 10 2 6 0
-16 -9 -7 -42 12 -48 11 -3 20 -11 20 -16 0 -5 7 -9 15 -9 8 0 15 5 15 10 0 6
9 10 19 10 17 0 46 21 102 75 9 8 26 15 38 15 12 0 33 10 46 23 13 12 30 27
37 34 23 22 38 42 38 53 0 5 4 10 9 10 5 0 23 14 41 30 18 17 36 30 40 30 5 0
12 10 16 23 7 22 23 39 64 67 12 8 28 21 36 28 7 6 15 12 19 12 6 0 23 13 58
46 13 11 35 24 50 28 15 3 27 11 27 16 0 6 7 10 15 10 8 0 15 -4 15 -10 0 -5
5 -10 10 -10 6 0 10 7 10 15 0 10 10 15 30 15 23 0 30 5 30 19 0 12 9 21 25
25 14 4 25 11 25 16 0 6 8 10 18 10 22 0 62 32 62 49 0 6 5 11 10 11 6 0 10 7
10 15 0 16 71 85 116 113 6 4 15 18 19 32 7 21 6 22 -7 10 -9 -8 -26 -22 -38
-30 -13 -8 -33 -25 -46 -37 -13 -13 -27 -23 -32 -23 -6 0 -24 -13 -42 -30 -18
-16 -39 -30 -47 -30 -8 0 -21 -7 -29 -15 -9 -8 -22 -15 -30 -15 -11 0 -6 10
14 30 17 17 38 30 46 30 9 0 16 5 16 11 0 16 26 39 44 39 9 0 16 7 16 15 0 8
7 15 15 15 8 0 15 4 15 9 0 5 9 13 20 16 11 3 20 15 20 26 0 12 7 19 19 19 10
0 39 19 63 43 25 23 55 49 67 57 11 8 21 20 21 27 0 7 7 13 15 13 8 0 15 7 15
15 0 8 9 15 20 15 13 0 20 7 20 20 0 13 7 20 18 20 19 0 62 31 62 45 0 15 -43
45 -64 45 -17 0 -18 -2 -6 -10 12 -7 11 -12 -8 -28 -12 -11 -22 -22 -22 -26 0
-12 -40 -46 -55 -46 -8 0 -15 -5 -15 -11 0 -12 -53 -64 -73 -72 -9 -4 -8 -9 3
-17 13 -10 13 -11 -2 -6 -10 3 -29 -6 -46 -22 -17 -15 -40 -34 -52 -42 -13 -8
-28 -21 -34 -28 -25 -29 -35 -38 -56 -52 -45 -31 -90 -77 -90 -93 0 -9 -4 -17
-8 -17 -10 0 -42 -25 -98 -75 -24 -22 -57 -51 -74 -65 -17 -14 -37 -31 -45
-38 -16 -14 -25 -15 -25 -3 0 5 9 13 20 16 11 3 20 15 20 26 0 10 4 19 8 19
12 0 52 35 52 45 0 4 11 18 25 31 14 13 25 26 25 30 0 7 48 52 78 73 11 8 23
25 27 38 3 13 9 23 14 23 12 0 51 36 51 46 0 5 10 16 21 24 21 14 31 24 55 52
6 7 22 20 34 28 13 8 46 38 75 65 29 28 63 57 75 65 13 8 33 25 46 38 13 12
28 22 34 22 5 0 10 9 10 20 0 13 7 20 20 20 13 0 20 7 20 19 0 21 56 37 90 26
30 -10 28 -72 -2 -77 -25 -4 -37 -28 -14 -28 9 0 16 -7 16 -16 0 -11 6 -14 20
-9 14 5 20 2 20 -9 0 -9 9 -16 20 -16 14 0 20 7 20 23 0 12 -9 29 -20 37 -14
10 -20 26 -20 52 0 21 -4 38 -10 38 -5 0 -10 6 -10 14 0 8 -9 18 -20 21 -23 7
-26 20 -7 29 10 5 10 7 0 12 -15 7 -18 84 -3 84 6 0 10 7 10 15 0 8 -4 15 -9
15 -5 0 -12 11 -15 25 -4 14 -11 25 -16 25 -6 0 -10 5 -10 11 0 12 -38 50 -49
48 -3 0 -12 -3 -18 -6z m87 -93 c0 -5 -4 -10 -10 -10 -5 0 -10 -11 -10 -25 0
-14 -2 -25 -4 -25 -2 0 -11 -3 -20 -6 -11 -4 -16 -1 -16 10 0 9 5 16 10 16 6
0 10 5 10 10 0 13 22 39 33 40 4 0 7 -4 7 -10z m-114 -46 c-9 -8 -16 -20 -16
-26 0 -6 -10 -19 -22 -29 -13 -10 -35 -29 -51 -41 -15 -13 -48 -42 -73 -65
-25 -24 -55 -43 -66 -43 -18 0 -17 3 11 28 18 15 52 45 76 67 24 22 58 51 75
65 18 14 39 33 48 43 9 9 20 17 25 17 5 0 1 -7 -7 -16z m34 -43 c0 -11 -9 -22
-19 -26 -11 -3 -23 -15 -26 -26 -4 -10 -12 -19 -20 -19 -7 0 -21 -3 -31 -7
-10 -4 4 16 32 44 55 57 64 62 64 34z m20 -61 c0 -5 -4 -10 -10 -10 -5 0 -10
-7 -10 -15 0 -8 -8 -15 -19 -15 -10 0 -27 -11 -37 -25 -23 -30 -34 -32 -34 -5
0 13 7 20 19 20 10 0 21 9 24 20 3 12 14 20 26 20 12 0 21 5 21 10 0 6 5 10
10 10 6 0 10 -4 10 -10z m60 0 c0 -5 -2 -10 -4 -10 -2 0 -12 -3 -22 -7 -16 -6
-17 -5 -4 10 17 19 30 22 30 7z m-690 -240 c0 -5 -4 -10 -10 -10 -5 0 -10 5
-10 10 0 6 5 10 10 10 6 0 10 -4 10 -10z m300 -5 c0 -8 -9 -15 -19 -15 -11 0
-21 -6 -24 -12 -2 -8 -8 -9 -13 -4 -5 5 -4 11 4 13 7 3 18 11 25 19 16 18 27
17 27 -1z m-126 -20 c-4 -8 -10 -15 -15 -15 -5 0 -9 -5 -9 -11 0 -18 -41 -49
-64 -48 -12 0 -15 3 -8 6 6 2 12 9 12 15 0 14 60 68 76 68 8 0 11 -6 8 -15z
m-1618 -30 c9 -8 11 -15 5 -15 -6 0 -11 -5 -11 -11 0 -6 -7 -17 -15 -25 -13
-14 -17 -14 -30 0 -20 20 -19 33 5 41 11 3 20 11 20 16 0 13 9 11 26 -6z
m1314 -48 c0 -7 -9 -19 -20 -27 -11 -8 -20 -20 -20 -27 0 -6 -9 -15 -20 -18
-11 -3 -20 -14 -20 -24 0 -10 -12 -27 -26 -37 -14 -10 -32 -25 -39 -31 -8 -7
-19 -13 -26 -13 -6 0 -26 -16 -45 -35 -18 -19 -39 -35 -47 -35 -8 0 -24 -9
-37 -20 -13 -11 -29 -20 -37 -20 -22 0 -15 37 12 62 65 60 75 68 87 68 8 0 21
8 30 18 9 9 31 28 48 42 17 14 49 41 70 62 33 32 52 42 83 47 4 0 7 -5 7 -12z
m280 -7 c0 -5 -4 -10 -10 -10 -5 0 -10 -6 -10 -13 0 -7 -10 -19 -21 -27 -12
-8 -33 -26 -47 -39 l-24 -24 7 24 c4 13 17 31 27 39 11 8 30 25 41 37 24 24
37 29 37 13z m-1690 -45 c0 -8 -4 -15 -9 -15 -5 0 -23 -13 -41 -30 -18 -16
-37 -30 -44 -29 -7 0 -7 2 2 6 6 2 12 13 12 24 0 10 4 19 8 19 5 0 19 9 32 20
27 24 40 25 40 5z m-100 -1 c0 -8 -57 -64 -65 -64 -3 0 -5 9 -5 20 0 13 7 20
20 20 11 0 20 7 20 15 0 8 7 15 15 15 8 0 15 -3 15 -6z m210 -9 c0 -8 -9 -15
-20 -15 -11 0 -20 7 -20 15 0 8 9 15 20 15 11 0 20 -7 20 -15z m1390 6 c0 -5
-9 -12 -19 -16 -11 -3 -23 -15 -26 -26 -4 -10 -10 -19 -15 -19 -5 0 -15 -6
-22 -13 -7 -8 -27 -17 -43 -21 l-30 -8 24 21 c13 12 28 21 33 21 4 0 8 9 8 20
0 13 7 20 20 20 11 0 23 7 26 15 7 16 44 21 44 6z m-1450 -52 c0 -13 -83 -95
-102 -102 -7 -2 -10 -8 -6 -12 7 -7 18 1 63 43 13 12 29 22 35 22 5 0 10 6 10
14 0 15 22 26 48 25 11 0 12 -2 5 -6 -7 -2 -13 -9 -13 -14 0 -11 -97 -107
-130 -129 -13 -8 -35 -27 -50 -42 -15 -16 -35 -28 -44 -28 -9 0 -16 -6 -16
-12 0 -7 -14 -24 -31 -38 -16 -14 -43 -38 -60 -54 -16 -16 -33 -25 -37 -21 -4
4 -1 10 6 12 6 3 12 13 12 24 0 10 4 19 10 19 5 0 12 10 15 23 4 13 16 30 27
38 11 8 33 25 48 39 16 14 40 34 54 45 14 11 25 29 26 40 0 11 14 31 31 45 17
14 42 37 57 52 30 29 42 34 42 17z m1410 -27 c0 -4 -16 -21 -36 -37 -19 -17
-56 -49 -80 -72 -25 -23 -51 -44 -57 -47 -9 -5 -9 -7 1 -12 18 -9 15 -28 -9
-44 -39 -28 -59 -47 -59 -59 0 -6 -5 -11 -10 -11 -11 0 -18 -5 -71 -52 -17
-16 -40 -28 -50 -28 -10 0 -19 -4 -19 -10 0 -14 38 -12 43 3 2 7 8 8 13 3 5
-5 4 -11 -3 -13 -7 -3 -13 -11 -13 -19 0 -8 -7 -14 -15 -14 -8 0 -32 -17 -53
-37 -22 -21 -49 -45 -62 -53 -12 -8 -28 -21 -34 -28 -25 -29 -35 -38 -56 -52
-44 -30 -90 -77 -90 -92 0 -16 -20 -28 -46 -28 -8 0 -14 5 -14 11 0 13 38 49
52 49 4 0 8 8 8 17 0 17 45 63 62 63 4 0 8 9 8 20 0 13 7 20 20 20 11 0 28 9
37 20 10 11 23 20 31 20 7 0 24 10 37 23 40 37 54 47 65 47 6 0 10 10 9 23 -4
41 1 57 17 57 8 0 21 6 28 13 8 6 24 19 36 27 13 8 28 21 34 28 30 35 39 42
86 72 13 9 13 11 0 21 -11 8 -12 12 -2 16 12 5 18 33 6 33 -10 0 -34 -28 -34
-39 0 -6 -9 -11 -20 -11 -11 0 -20 -7 -20 -15 0 -8 -8 -15 -17 -14 -11 0 -13
3 -5 6 6 2 12 13 12 22 0 10 12 27 26 37 14 10 32 25 39 32 18 16 25 15 25 -3
0 -19 16 -19 32 0 21 25 35 38 68 65 17 14 37 30 43 37 13 14 37 17 37 5z
m-1670 -52 c0 -5 -4 -10 -10 -10 -5 0 -10 5 -10 10 0 6 5 10 10 10 6 0 10 -4
10 -10z m1430 -45 c0 -5 -27 -31 -67 -65 -7 -5 -17 -10 -23 -10 -12 0 -32 -15
-58 -42 -18 -20 -32 -23 -32 -8 0 15 58 70 73 70 8 0 24 9 37 20 13 11 29 20
37 20 7 0 13 5 13 10 0 6 5 10 10 10 6 0 10 -2 10 -5z m390 -5 c0 -5 -4 -10
-10 -10 -5 0 -10 -6 -10 -14 0 -7 -11 -22 -25 -32 -14 -10 -25 -23 -25 -29 0
-6 -9 -17 -21 -25 -41 -29 -56 -45 -63 -67 -4 -13 -11 -23 -16 -23 -10 0 -70
-55 -70 -64 0 -12 -61 -66 -74 -66 -8 0 -28 -13 -46 -30 -18 -16 -39 -30 -47
-30 -11 0 -14 -7 -9 -24 6 -25 -2 -37 -43 -66 -11 -8 -21 -19 -21 -25 0 -6
-10 -17 -21 -25 -12 -8 -27 -21 -33 -28 -25 -29 -35 -38 -56 -52 -13 -8 -33
-25 -46 -37 -23 -23 -64 -31 -64 -13 0 6 4 10 9 10 5 0 12 11 15 25 4 14 10
25 15 25 5 0 23 12 39 28 17 15 41 35 53 44 12 9 22 26 23 36 1 18 40 60 85
92 12 8 21 19 21 24 0 9 43 50 100 96 17 14 37 31 43 38 7 7 17 18 23 25 6 7
22 19 34 27 12 8 42 33 66 55 24 22 57 51 74 65 17 14 43 37 58 52 29 28 42
34 42 18z m-1300 -20 c0 -15 -38 -50 -55 -50 -21 0 -19 18 4 25 11 3 22 12 25
20 6 17 26 20 26 5z m1510 -5 c0 -8 -9 -15 -20 -15 -10 0 -30 -11 -44 -25 -14
-14 -29 -25 -34 -25 -9 0 -44 -25 -77 -57 -23 -22 -55 -31 -55 -15 0 4 10 14
21 22 12 8 27 20 33 26 6 6 23 14 38 17 15 4 30 16 33 27 3 11 14 20 24 20 10
0 28 9 41 20 27 24 40 25 40 5z m-2075 -31 c-9 -9 -19 -13 -23 -10 -3 4 0 11
8 16 24 15 33 11 15 -6z m1295 -8 c0 -16 -7 -27 -20 -31 -11 -3 -20 -11 -20
-16 0 -5 -9 -9 -20 -9 -11 0 -20 -7 -20 -15 0 -8 -5 -15 -11 -15 -6 0 -17 -6
-24 -12 -35 -32 -45 -38 -60 -38 -8 0 -15 5 -15 10 0 6 5 10 10 10 6 0 10 6
10 13 0 7 10 19 21 27 12 8 34 27 49 43 16 15 36 27 44 27 9 0 16 7 16 15 0 8
9 15 20 15 15 0 20 -7 20 -24z m-210 -41 c0 -3 -11 -16 -25 -29 -14 -13 -25
-27 -25 -32 0 -5 -9 -16 -20 -24 -11 -8 -20 -19 -20 -24 0 -10 -39 -46 -52
-46 -4 0 -8 -8 -8 -19 0 -10 -11 -27 -25 -37 -14 -10 -25 -23 -25 -29 0 -6 -9
-17 -21 -25 -41 -29 -56 -45 -63 -67 -4 -13 -11 -23 -15 -23 -8 0 -44 -27 -76
-57 -13 -13 -27 -23 -30 -23 -11 0 -4 40 8 41 10 0 10 2 0 6 -26 10 -14 33 15
29 15 -2 19 -1 10 1 -10 2 -18 7 -18 10 0 13 45 43 57 39 21 -9 41 4 47 30 4
13 11 24 16 24 6 0 10 5 10 11 0 13 38 49 52 49 4 0 8 9 8 19 0 11 9 23 20 26
11 3 20 14 20 24 0 10 12 27 26 37 24 17 74 60 99 83 11 11 35 14 35 6z m280
-35 c0 -5 -4 -10 -10 -10 -5 0 -10 -5 -10 -11 0 -13 -76 -85 -200 -190 -16
-14 -21 -23 -12 -26 14 -5 17 -33 2 -33 -5 0 -28 -18 -50 -40 -22 -22 -43 -40
-45 -40 -10 0 -5 22 8 35 47 53 43 65 -5 15 -15 -16 -33 -30 -38 -30 -6 0 -10
-7 -10 -15 0 -8 -9 -15 -20 -15 -13 0 -20 -7 -20 -20 0 -11 -6 -20 -14 -20
-20 0 -76 -55 -76 -75 0 -12 -6 -15 -22 -11 -13 3 -17 3 -10 0 19 -9 14 -24
-8 -24 -11 0 -20 1 -20 3 -1 1 -3 25 -6 53 -6 55 6 75 66 114 13 8 35 27 50
43 15 15 32 27 39 27 12 0 25 9 66 48 13 12 29 22 35 22 5 0 10 7 10 15 0 8 4
15 9 15 9 0 51 35 109 91 20 19 49 39 65 42 15 4 27 12 27 17 0 6 9 10 20 10
21 0 27 -15 10 -23 -6 -3 -5 -4 2 -3 7 2 12 13 11 25 -2 16 3 21 22 21 14 0
25 -4 25 -10z m-1090 -20 c0 -5 -4 -10 -10 -10 -5 0 -10 5 -10 10 0 6 5 10 10
10 6 0 10 -4 10 -10z m160 5 c0 -3 -11 -16 -25 -29 -14 -13 -25 -28 -25 -35 0
-6 -9 -11 -20 -11 -11 0 -20 -7 -20 -15 0 -8 -7 -15 -16 -15 -9 0 -25 -10 -35
-22 -11 -11 -19 -16 -19 -10 0 11 11 22 60 62 17 14 43 37 58 52 26 25 42 34
42 23z m494 -30 c-7 -16 -24 -21 -24 -6 0 8 7 13 27 20 1 1 0 -6 -3 -14z
m-134 -5 c0 -5 -4 -10 -10 -10 -5 0 -20 -11 -34 -25 -14 -14 -32 -25 -41 -25
-8 0 -15 -7 -15 -15 0 -8 -4 -15 -10 -15 -19 0 -10 22 23 51 17 16 37 33 42
38 13 13 45 14 45 1z m-210 -30 c0 -5 -4 -10 -10 -10 -5 0 -10 -5 -10 -10 0
-27 -82 -100 -112 -100 -10 0 -18 -4 -18 -10 0 -5 -4 -10 -10 -10 -18 0 -11
18 10 25 11 3 20 13 20 21 0 8 8 14 18 14 9 1 35 21 57 45 40 44 55 53 55 35z
m300 0 c0 -5 -4 -10 -10 -10 -5 0 -10 5 -10 10 0 6 5 10 10 10 6 0 10 -4 10
-10z m153 -37 c-14 -3 -23 -12 -23 -24 0 -18 -44 -38 -57 -25 -4 3 3 6 15 6
15 0 22 6 22 19 0 21 14 30 45 29 17 -1 16 -1 -2 -5z m-933 -63 c-27 -24 -40
-25 -40 -6 0 16 15 24 44 25 17 1 17 -1 -4 -19z m260 0 c0 -5 -4 -10 -10 -10
-5 0 -10 -6 -10 -13 0 -7 -10 -19 -22 -27 -11 -8 -28 -23 -37 -32 -8 -10 -23
-18 -32 -18 -10 0 -19 -6 -22 -12 -2 -8 -8 -9 -13 -4 -5 5 -3 11 4 13 11 4 37
27 117 103 13 12 25 12 25 0z m-108 -29 c-12 -10 -22 -23 -22 -30 0 -6 -9 -11
-19 -11 -11 0 -21 -6 -24 -12 -2 -8 -8 -9 -13 -4 -5 5 -4 11 3 13 7 3 27 18
44 34 17 16 36 29 42 29 5 0 0 -8 -11 -19z m498 6 c0 -7 -9 -19 -21 -27 -11
-8 -30 -23 -42 -33 -39 -33 -31 3 8 39 40 36 55 42 55 21z m-240 -51 c0 -7
-13 -16 -30 -19 -21 -5 -30 -12 -30 -27 0 -11 -4 -20 -9 -20 -15 0 -61 -49
-61 -65 0 -8 -2 -15 -4 -15 -2 0 -11 -3 -20 -6 -9 -4 -16 -1 -16 6 0 14 38 50
52 50 4 0 8 7 8 15 0 14 28 44 71 78 28 21 39 22 39 3z m980 -6 c0 -5 -4 -10
-10 -10 -5 0 -10 5 -10 10 0 6 5 10 10 10 6 0 10 -4 10 -10z m-1300 -26 c0
-14 -43 -42 -56 -37 -17 6 -17 10 -1 28 12 14 57 21 57 9z m430 -55 c0 -12
-58 -69 -70 -69 -5 0 -11 -9 -15 -19 -3 -11 -15 -23 -26 -26 -26 -8 -24 -23 4
-28 12 -2 3 -5 -20 -6 -32 -1 -43 3 -43 14 0 8 5 15 10 15 6 0 10 5 10 11 0
14 26 39 41 39 6 0 24 12 40 28 58 57 69 63 69 41z m43 -33 c-5 -23 -30 -42
-41 -31 -3 3 0 5 6 5 7 0 12 9 12 19 0 11 6 22 13 24 6 3 13 6 13 6 1 1 -1
-10 -3 -23z m27 -66 c0 -5 -4 -10 -10 -10 -5 0 -10 -7 -10 -15 0 -8 -7 -15
-15 -15 -19 0 -19 6 3 29 19 22 32 26 32 11z m60 -20 c0 -23 -4 -30 -20 -30
-11 0 -20 7 -20 15 0 8 5 15 10 15 6 0 10 7 10 15 0 8 5 15 10 15 6 0 10 -13
10 -30z m200 -11 c0 -14 -25 -39 -39 -39 -15 0 -14 7 7 29 19 22 32 26 32 10z
m100 1 c0 -5 -4 -10 -9 -10 -5 0 -17 -7 -26 -16 -9 -9 -19 -13 -23 -9 -4 4 -1
10 6 12 7 3 18 11 25 19 14 16 27 18 27 4z m-343 -46 l25 -25 -33 3 c-26 2
-35 8 -37 26 -4 29 13 28 45 -4z m347 2 c-6 -15 -24 -23 -24 -11 0 8 24 34 28
30 1 -1 0 -10 -4 -19z m-154 -36 c-27 -23 -60 -26 -60 -6 0 17 15 24 54 25
l29 1 -23 -20z"/>
<path d="M2690 1210 c0 -5 -7 -10 -16 -10 -8 0 -22 -6 -30 -14 -7 -8 -19 -16
-26 -19 -7 -2 -10 -8 -6 -12 4 -4 14 0 23 9 9 9 23 16 31 16 15 0 44 23 44 34
0 3 -4 6 -10 6 -5 0 -10 -4 -10 -10z"/>
<path d="M2020 1210 c0 -5 5 -10 10 -10 6 0 10 5 10 10 0 6 -4 10 -10 10 -5 0
-10 -4 -10 -10z"/>
<path d="M2540 1445 c0 -8 -9 -15 -20 -15 -13 0 -20 -7 -20 -20 0 -13 -9 -22
-25 -26 -16 -4 -25 -13 -25 -25 0 -12 -7 -19 -20 -19 -11 0 -20 -7 -20 -15 0
-8 -4 -15 -10 -15 -5 0 -23 -13 -38 -30 -16 -16 -37 -30 -46 -30 -9 0 -16 -4
-16 -9 0 -5 -9 -13 -20 -16 -11 -3 -20 -15 -20 -26 0 -11 -7 -19 -17 -19 -9 0
-23 -7 -32 -15 -31 -29 -79 -70 -100 -85 -21 -14 -29 -40 -12 -40 9 0 33 20
116 95 24 22 58 51 75 65 17 14 50 43 74 65 24 22 54 47 66 55 13 8 28 21 34
28 13 15 26 28 66 64 30 26 39 48 20 48 -5 0 -10 -7 -10 -15z"/>
<path d="M1350 2135 c0 -8 5 -15 10 -15 6 0 10 7 10 15 0 8 -4 15 -10 15 -5 0
-10 -7 -10 -15z"/>
<path d="M3774 2018 c-4 -13 -15 -30 -25 -39 -11 -9 -19 -21 -19 -27 0 -6 -6
-13 -12 -16 -10 -5 -10 -7 0 -12 6 -3 12 -12 12 -20 0 -33 40 4 41 38 0 13 3
17 6 11 13 -34 63 -1 63 41 0 19 -5 26 -20 26 -11 0 -20 5 -20 10 0 19 -19 10
-26 -12z"/>
<path d="M3860 1985 c0 -14 -4 -25 -10 -25 -5 0 -10 -9 -10 -19 0 -11 -9 -23
-20 -26 -11 -3 -20 -11 -20 -16 0 -5 9 -9 20 -9 11 0 20 7 20 15 0 8 5 15 10
15 6 0 10 9 10 20 0 11 5 20 10 20 6 0 10 11 10 25 0 14 -4 25 -10 25 -5 0
-10 -11 -10 -25z"/>
<path d="M1480 1905 c0 -8 3 -15 6 -15 3 0 12 7 20 15 14 13 13 15 -5 15 -12
0 -21 -6 -21 -15z"/>
<path d="M3775 1812 c-4 -15 -12 -30 -18 -34 -6 -4 -8 -11 -3 -15 5 -4 11 -2
13 5 7 18 32 42 45 42 6 0 1 -8 -10 -19 -12 -10 -22 -24 -22 -31 0 -8 -8 -10
-25 -6 -18 5 -25 2 -25 -8 0 -8 -9 -18 -20 -21 -11 -3 -20 -15 -20 -25 0 -10
-9 -21 -19 -25 -11 -3 -23 -16 -27 -28 -7 -23 -41 -57 -56 -57 -4 0 -8 -9 -8
-20 0 -11 -4 -20 -10 -20 -5 0 -30 -19 -54 -42 -65 -61 -69 -64 -99 -72 -15
-3 -27 -11 -27 -16 0 -6 -7 -10 -15 -10 -8 0 -15 5 -15 11 0 12 73 84 110 109
37 25 76 70 60 70 -6 0 -13 -7 -16 -15 -4 -8 -17 -15 -30 -15 -14 0 -30 -5
-37 -10 -46 -39 -61 -50 -69 -50 -5 0 -20 -10 -33 -22 -42 -40 -54 -48 -70
-48 -8 0 -15 -7 -15 -15 0 -9 10 -15 26 -15 53 0 72 -56 32 -93 -18 -16 -19
-19 -5 -14 10 4 25 7 33 7 8 0 14 5 14 11 0 11 25 39 35 39 9 0 35 27 35 37 0
5 10 15 21 23 12 8 28 21 36 29 8 7 17 10 21 6 4 -4 1 -10 -5 -12 -7 -3 -13
-10 -13 -17 0 -6 -9 -18 -20 -26 -11 -8 -20 -19 -20 -25 0 -6 -9 -17 -21 -25
-47 -34 -89 -80 -89 -99 0 -12 2 -21 5 -21 13 0 45 37 45 52 0 10 4 18 8 18 9
0 40 23 84 63 33 30 69 39 46 12 -28 -34 -77 -75 -90 -75 -4 0 -8 -9 -8 -19 0
-11 -6 -22 -12 -24 -10 -4 -10 -6 0 -6 6 -1 12 -8 12 -17 0 -13 7 -15 42 -9
23 4 48 14 56 22 10 10 26 12 52 8 47 -8 75 15 65 54 -4 17 -2 21 3 13 6 -8
33 -15 66 -17 46 -3 58 0 63 13 7 17 31 41 92 92 17 14 31 31 31 38 0 6 4 12
9 12 5 0 16 3 25 6 10 4 16 1 16 -9 0 -9 -9 -18 -19 -22 -11 -3 -23 -16 -27
-28 -7 -21 -42 -58 -83 -87 -12 -8 -21 -20 -21 -27 0 -17 8 -16 26 2 9 8 24
15 35 15 10 0 19 5 19 10 0 6 7 10 15 10 8 0 15 7 15 15 0 8 5 15 10 15 6 0
10 5 10 11 0 11 24 39 34 39 3 0 6 -11 6 -25 0 -14 -4 -25 -10 -25 -5 0 -10
-7 -10 -15 0 -11 11 -15 40 -15 45 0 53 16 20 40 -21 15 -27 40 -10 40 6 0 10
7 10 15 0 8 -9 15 -20 15 -15 0 -20 7 -20 25 0 18 -5 25 -20 25 -17 0 -20 7
-20 40 0 22 5 40 10 40 6 0 10 7 10 15 0 9 -9 15 -23 15 -22 0 -22 3 -21 77 1
48 6 79 13 81 16 5 14 39 -4 46 -8 3 -15 12 -15 19 0 10 -16 14 -59 15 -56 1
-59 -1 -66 -26z m125 -47 c0 -19 -4 -35 -10 -35 -5 0 -10 -5 -10 -11 0 -11
-24 -39 -34 -39 -3 0 -6 9 -6 20 0 11 -4 20 -10 20 -5 0 -10 -4 -10 -10 0 -5
-9 -10 -19 -10 -10 0 -21 -7 -25 -15 -3 -8 -10 -15 -16 -15 -6 0 -4 7 4 16 9
8 16 21 16 28 0 6 10 18 21 26 12 8 31 25 43 37 33 34 56 30 56 -12z m0 -111
c0 -28 -21 -54 -44 -54 -17 0 -106 -82 -106 -99 0 -6 -9 -11 -19 -11 -11 0
-21 -6 -24 -12 -2 -8 -8 -9 -13 -4 -5 5 -4 11 4 13 6 3 12 9 12 15 0 12 39 48
51 48 5 0 11 11 15 25 4 16 13 25 25 25 10 0 19 5 19 11 0 13 58 69 71 69 5 0
9 -12 9 -26z m-100 -14 c0 -5 -5 -10 -10 -10 -6 0 -14 -8 -17 -17 -7 -19 -47
-59 -83 -83 -12 -8 -28 -21 -36 -27 -14 -14 -34 -17 -34 -5 1 4 12 16 26 27
14 11 39 32 56 48 16 15 34 27 39 27 5 0 9 5 9 10 0 15 23 39 38 40 6 0 12 -4
12 -10z m100 -136 c0 -9 -41 -44 -52 -44 -4 0 -8 -5 -8 -10 0 -14 -131 -140
-145 -140 -15 0 -2 25 26 50 63 55 79 74 79 90 0 5 5 10 10 10 6 0 10 7 10 15
0 8 9 15 20 15 11 0 20 5 20 10 0 6 9 10 20 10 11 0 20 -3 20 -6z m-170 -54
c0 -5 -2 -10 -4 -10 -2 0 -12 -3 -22 -7 -16 -6 -17 -5 -4 10 17 19 30 22 30 7z
m-97 -17 c-7 -2 -13 -13 -13 -24 0 -10 -4 -19 -10 -19 -5 0 -20 -11 -34 -25
-25 -25 -56 -33 -56 -15 0 6 9 10 20 10 11 0 20 5 20 11 0 15 59 69 74 68 7 0
7 -2 -1 -6z m-107 -139 c-9 -8 -16 -20 -16 -25 0 -5 -4 -9 -10 -9 -14 0 -12
37 3 43 28 12 39 7 23 -9z m114 -4 c0 -5 -4 -10 -10 -10 -5 0 -10 5 -10 10 0
6 5 10 10 10 6 0 10 -4 10 -10z"/>
<path d="M3644 1795 c-4 -8 -13 -15 -21 -15 -8 0 -20 -6 -27 -12 -8 -7 -24
-20 -36 -28 -12 -8 -28 -21 -36 -27 -7 -7 -17 -13 -23 -13 -6 0 -11 -4 -11 -9
0 -5 -9 -13 -20 -16 -11 -3 -20 -15 -20 -26 0 -10 -4 -19 -8 -19 -5 0 -19 -9
-32 -20 -21 -19 -22 -20 -4 -20 23 0 46 16 118 85 29 28 63 57 76 65 37 25 76
70 60 70 -6 0 -13 -7 -16 -15z"/>
<path d="M1150 1530 c0 -5 5 -10 10 -10 6 0 10 5 10 10 0 6 -4 10 -10 10 -5 0
-10 -4 -10 -10z"/>
<path d="M3205 1450 c-5 -5 -35 -33 -66 -62 -31 -29 -67 -60 -79 -68 -13 -8
-35 -27 -49 -42 -17 -17 -35 -25 -51 -23 -14 1 -17 0 -7 -2 18 -5 24 -23 7
-23 -5 0 -20 -11 -34 -25 -14 -14 -28 -25 -31 -25 -11 0 -5 39 8 43 8 4 9 6 0
6 -11 1 -18 -5 -49 -41 -6 -7 -21 -20 -34 -28 -37 -25 -80 -67 -80 -79 0 -15
17 -14 24 2 5 10 7 10 12 0 12 -26 64 -4 64 26 0 6 7 11 15 11 8 0 15 7 15 15
0 20 34 19 54 -1 15 -14 17 -14 32 0 8 9 20 16 25 16 5 0 11 11 15 25 3 14 10
25 15 25 5 0 9 6 9 13 0 7 10 19 21 27 12 8 39 32 61 53 21 20 45 37 53 37 8
0 25 11 39 25 14 14 32 25 41 25 8 0 15 7 15 15 0 8 -3 15 -6 15 -3 0 -12 -7
-20 -15 -9 -8 -24 -15 -35 -15 -18 0 -18 2 5 25 14 14 32 25 41 25 8 0 15 7
15 15 0 16 -29 19 -45 5z m-212 -258 c-3 -12 -13 -22 -23 -22 -10 0 -20 -6
-23 -12 -2 -8 -8 -9 -13 -4 -5 5 -4 11 4 13 6 3 12 11 12 19 0 8 9 14 20 14
11 0 20 5 20 12 0 6 2 9 5 7 2 -3 2 -15 -2 -27z"/>
<path d="M3103 1406 c-12 -12 -36 -32 -52 -46 -61 -49 -83 -71 -78 -77 3 -3
16 6 29 19 13 14 35 28 51 32 18 4 27 13 27 26 0 13 7 20 20 20 11 0 23 7 26
15 11 27 -1 32 -23 11z"/>
</g>
</svg>
